<?xml version="1.0" standalone="no"?>
<!DOCTYPE svg PUBLIC "-//W3C//DTD SVG 20010904//EN"
 "http://www.w3.org/TR/2001/REC-SVG-20010904/DTD/svg10.dtd">
<svg version="1.0" xmlns="http://www.w3.org/2000/svg"
 width="1000.000000pt" height="1000.000000pt" viewBox="0 0 1000.000000 1000.000000"
 preserveAspectRatio="xMidYMid meet">

<g transform="translate(0.000000,1000.000000) scale(0.100000,-0.100000)"
fill="#000000" stroke="none">
<path d="M0 5000 l0 -5000 5000 0 5000 0 0 5000 0 5000 -5000 0 -5000 0 0
-5000z m5360 4745 c20 -24 13 -189 -11 -263 -23 -68 -40 -92 -70 -92 -39 0
-38 122 2 199 18 36 20 44 8 52 -9 6 -17 4 -24 -7 -5 -9 -21 -30 -34 -46 -30
-37 -40 -82 -39 -186 1 -91 -3 -99 -46 -88 -18 4 -26 17 -35 50 -20 80 -14
129 26 213 20 43 40 80 45 81 4 2 6 7 4 11 -2 3 21 25 52 49 60 44 101 53 122
27z m-560 -60 c4 -16 12 -41 19 -54 7 -13 20 -72 27 -130 12 -84 12 -125 3
-201 -10 -86 -53 -247 -70 -260 -3 -3 -10 -16 -14 -30 -4 -14 -11 -27 -14 -30
-4 -3 -20 -22 -36 -43 -35 -46 -61 -63 -79 -48 -7 6 -15 9 -17 7 -5 -5 -7 39
-9 182 -1 106 1 134 12 142 11 9 21 115 14 145 -5 21 -9 23 -19 13 -7 -7 -20
-33 -29 -58 -9 -25 -23 -64 -32 -86 -24 -65 -44 -257 -35 -344 15 -147 29
-224 47 -259 10 -20 22 -51 25 -69 4 -19 16 -45 27 -59 11 -14 20 -34 20 -44
0 -9 6 -24 13 -31 7 -7 20 -26 30 -41 10 -15 22 -25 26 -22 5 2 8 -1 7 -8 0
-7 17 -35 39 -61 69 -82 79 -90 260 -215 39 -27 77 -56 84 -65 7 -9 20 -16 27
-16 8 0 14 -3 14 -7 0 -5 19 -28 42 -53 58 -62 125 -164 134 -203 15 -68 63
-100 85 -57 92 180 101 247 62 440 -23 112 -22 411 1 513 18 76 18 124 -1 227
-10 58 -6 242 6 290 29 108 102 246 169 316 8 8 11 21 8 29 -3 9 0 12 9 9 15
-6 82 53 77 68 -1 5 2 7 7 4 5 -4 12 -2 16 4 3 6 21 16 39 24 18 7 44 25 59
40 36 35 52 33 86 -14 23 -32 31 -60 46 -156 10 -66 15 -136 11 -163 -16 -125
-26 -178 -40 -206 -8 -16 -24 -50 -35 -75 -33 -74 -66 -122 -138 -197 -13 -13
-23 -28 -23 -32 0 -12 -26 -21 -57 -21 l-26 0 6 78 c7 88 15 151 22 171 3 7
12 48 21 90 8 42 22 85 29 97 7 12 17 38 21 60 4 21 13 45 21 53 8 7 12 20 9
28 -3 8 -2 12 3 9 5 -3 9 6 9 21 0 14 7 30 16 35 17 10 22 58 6 58 -5 0 -10
-4 -10 -10 0 -5 -13 -23 -30 -40 -16 -17 -30 -37 -30 -45 0 -7 -6 -20 -13 -27
-7 -7 -21 -31 -31 -53 -10 -22 -27 -48 -36 -57 -24 -22 -75 -184 -88 -278 -6
-41 -15 -95 -20 -120 -11 -50 -26 -335 -26 -480 0 -107 7 -189 31 -337 15 -97
15 -105 -1 -142 -14 -30 -16 -43 -7 -59 13 -24 24 -22 90 20 25 15 50 28 55
28 6 0 22 6 36 13 14 8 48 19 75 26 65 16 206 71 226 88 8 7 22 13 31 13 8 0
27 11 41 24 14 13 28 22 31 19 13 -13 136 140 151 189 4 12 23 54 41 92 19 39
34 78 34 87 0 21 21 71 33 80 5 3 8 9 7 13 -2 5 10 88 15 106 1 3 7 23 13 44
6 22 9 42 7 45 -3 2 0 10 6 17 6 7 14 46 19 86 5 40 18 106 29 146 18 66 21
105 12 215 -1 5 -11 7 -23 5 -21 -3 -24 -10 -29 -88 -4 -47 -14 -99 -23 -116
-9 -17 -18 -55 -21 -85 -7 -74 -15 -109 -25 -109 -5 0 -14 -19 -20 -42 -7 -22
-18 -51 -26 -63 -8 -12 -21 -44 -29 -72 -24 -80 -48 -79 -83 3 -18 43 -21 71
-22 195 -2 143 2 170 25 199 7 8 18 38 25 65 8 28 16 52 19 55 15 12 41 82 35
92 -4 6 -3 9 2 5 5 -3 23 11 39 31 17 19 56 62 87 94 50 51 62 59 89 56 26 -2
34 -10 47 -43 9 -22 22 -46 29 -53 7 -7 13 -23 13 -35 0 -12 11 -38 23 -57 30
-43 42 -129 41 -271 -1 -113 -26 -240 -50 -260 -8 -6 -14 -18 -14 -25 0 -30
-66 -141 -116 -195 -29 -32 -56 -71 -59 -86 -13 -62 -37 -149 -46 -163 -5 -8
-15 -26 -21 -40 -7 -14 -15 -27 -18 -30 -3 -3 -21 -25 -40 -50 -19 -24 -54
-62 -77 -83 -24 -22 -40 -44 -36 -50 3 -6 1 -7 -6 -3 -6 4 -23 -1 -39 -12 -47
-33 -87 -51 -168 -72 -43 -12 -84 -26 -90 -31 -6 -5 -36 -16 -65 -25 -30 -9
-74 -27 -99 -40 -25 -13 -49 -24 -55 -24 -6 0 -22 -10 -35 -22 -14 -13 -31
-24 -37 -25 -12 -2 -54 -30 -110 -72 -83 -62 -224 -264 -202 -290 5 -6 6 -9 3
-6 -6 4 -44 -37 -44 -49 0 -19 -117 -182 -167 -231 -32 -33 -71 -84 -86 -113
-15 -29 -37 -62 -48 -73 -16 -16 -18 -24 -9 -33 8 -8 14 -7 21 6 5 9 34 40 63
68 30 29 53 57 52 64 -2 6 -1 8 1 4 3 -5 8 -8 12 -8 12 0 81 57 76 62 -3 3 1
5 7 5 7 1 48 10 91 22 42 11 127 25 187 30 60 5 151 19 202 31 112 26 319 81
333 89 5 3 16 6 25 7 25 3 117 41 152 62 18 11 49 25 69 31 20 6 45 20 56 31
12 10 23 16 26 13 6 -5 180 106 185 119 2 5 10 8 18 8 8 0 14 5 14 10 0 6 5
10 11 10 29 0 43 34 44 100 0 38 3 66 8 63 4 -2 7 4 7 14 1 62 21 196 33 220
8 16 20 53 25 83 6 30 24 93 41 139 17 47 29 86 27 88 -2 2 7 15 20 28 13 13
24 32 24 41 0 10 10 28 22 41 19 20 22 39 29 155 8 138 11 156 21 173 3 6 9
26 13 45 4 19 23 60 43 90 75 116 106 161 131 185 67 63 140 118 188 140 29
13 53 28 53 32 0 5 8 9 18 10 9 1 53 10 97 22 44 11 97 21 117 21 39 0 73 -24
64 -45 -2 -7 -10 -60 -17 -117 -12 -104 -31 -168 -49 -168 -5 0 -14 -19 -20
-41 -6 -23 -22 -52 -36 -66 -13 -13 -24 -29 -24 -34 0 -14 -73 -108 -84 -109
-14 0 -91 -74 -88 -83 1 -5 -2 -6 -7 -3 -10 7 -63 -33 -57 -43 5 -7 -18 -12
-69 -15 -26 -1 -30 3 -33 29 -2 17 2 33 10 40 8 5 25 39 38 75 13 36 28 71 33
77 5 7 7 19 3 28 -3 8 -1 14 3 12 5 -1 23 16 40 38 17 22 35 45 41 52 5 7 10
15 10 19 0 3 18 26 40 51 22 25 37 49 35 54 -3 4 0 11 6 15 8 4 9 3 5 -4 -4
-7 -1 -12 10 -12 11 0 15 6 11 20 -3 11 -2 18 3 15 9 -5 72 56 65 63 -2 3 -25
-3 -51 -13 -53 -20 -217 -177 -274 -263 -19 -29 -47 -68 -62 -88 -16 -20 -28
-42 -28 -48 0 -6 -7 -24 -15 -40 -9 -16 -13 -36 -10 -43 2 -8 1 -12 -3 -9 -15
9 -97 -225 -84 -238 3 -3 0 -6 -6 -6 -13 0 -75 -128 -91 -187 -6 -21 -17 -48
-25 -59 -9 -12 -17 -40 -18 -63 -2 -22 -6 -41 -10 -41 -5 0 -8 -7 -8 -15 0 -8
-4 -23 -9 -33 -13 -24 -41 -151 -41 -184 0 -19 5 -28 17 -28 20 0 134 119 136
142 0 9 4 15 8 12 4 -2 27 14 51 36 23 22 64 57 90 77 25 20 55 51 64 69 10
19 22 34 26 34 5 0 8 7 8 15 0 8 5 15 11 15 6 0 9 9 6 20 -3 10 0 18 5 17 5
-1 15 7 21 17 15 24 45 56 53 56 4 0 28 21 54 48 43 43 215 143 246 142 6 0
23 9 38 21 45 35 291 47 484 23 56 -7 76 -40 44 -75 -12 -12 -19 -27 -15 -32
3 -6 1 -7 -5 -3 -13 8 -143 -25 -136 -35 2 -4 -5 -5 -16 -2 -12 3 -31 -5 -51
-21 -17 -14 -36 -26 -42 -26 -6 0 -50 -15 -97 -34 -47 -18 -107 -41 -134 -51
-36 -13 -45 -20 -35 -27 10 -6 7 -7 -8 -3 -15 4 -44 -4 -85 -24 -35 -17 -69
-31 -76 -31 -23 0 -143 -60 -197 -98 -67 -48 -395 -381 -395 -402 0 -5 -8 -17
-18 -27 -29 -29 -92 -109 -92 -118 0 -4 -15 -24 -32 -44 -18 -20 -48 -56 -67
-79 -46 -58 -180 -170 -247 -208 -30 -16 -51 -34 -47 -39 5 -4 2 -5 -6 0 -8 5
-33 -2 -65 -18 -112 -56 -195 -84 -301 -102 -60 -9 -85 -17 -81 -23 2 -4 -13
-8 -33 -8 -21 -1 -59 -13 -87 -27 -27 -13 -65 -28 -84 -32 -39 -8 -73 -29 -64
-38 3 -3 -3 -3 -13 -1 -19 5 -162 -63 -198 -95 -11 -10 -44 -32 -73 -50 -56
-36 -155 -138 -146 -153 3 -5 0 -7 -7 -6 -18 4 -75 -94 -95 -161 -9 -31 -21
-62 -27 -70 -26 -31 -24 -365 2 -454 10 -34 26 -93 36 -132 40 -166 40 -165
163 -134 48 11 107 31 132 44 117 58 160 76 189 80 18 2 58 20 89 38 69 42
198 107 211 107 13 0 79 41 107 67 13 12 32 24 42 27 30 10 202 180 202 200 0
9 4 14 10 11 5 -3 21 18 35 46 15 28 35 60 45 71 16 18 17 34 13 162 -8 207
15 299 113 452 61 93 191 224 224 224 6 0 9 4 6 8 -2 4 4 9 16 9 11 1 35 13
53 27 19 14 37 26 40 26 4 0 23 7 42 16 42 21 50 14 69 -61 30 -113 11 -363
-33 -433 -7 -12 -11 -28 -7 -35 4 -7 4 -9 -1 -5 -4 4 -28 -28 -54 -72 -25 -43
-77 -112 -114 -152 -57 -60 -71 -71 -85 -61 -12 7 -17 24 -17 56 0 25 3 43 6
41 9 -5 21 45 14 56 -4 6 -2 10 4 10 5 0 15 26 21 58 7 31 20 80 30 107 10 28
21 67 24 89 3 21 15 48 26 59 13 11 20 27 17 38 -3 11 -2 17 3 14 7 -4 23 65
16 72 -1 1 -14 -3 -28 -9 -25 -12 -44 -47 -124 -228 -20 -47 -45 -97 -55 -112
-11 -14 -19 -33 -19 -42 0 -9 -9 -42 -19 -73 -11 -32 -32 -101 -47 -153 -15
-52 -39 -114 -53 -138 -66 -110 -104 -162 -118 -162 -10 0 -14 -6 -10 -20 3
-11 1 -18 -4 -14 -13 8 -10 -18 4 -38 11 -13 39 -18 144 -24 143 -7 235 2 388
41 92 24 285 108 285 125 0 5 6 7 13 5 12 -5 186 128 220 168 11 12 44 51 75
86 73 83 144 190 138 208 -3 8 -1 11 4 8 6 -3 15 6 20 21 6 15 20 34 31 42 13
9 19 21 16 33 -3 11 -1 17 4 13 5 -3 9 2 9 10 0 9 3 16 8 16 12 0 34 59 26 71
-4 7 -3 9 2 6 6 -3 15 -3 21 1 11 7 65 135 78 182 4 14 16 45 27 69 11 25 27
81 35 125 8 44 21 89 28 100 15 23 28 203 15 211 -18 11 -40 -9 -48 -44 -17
-68 -30 -116 -50 -176 -11 -33 -30 -94 -42 -135 -12 -41 -26 -82 -31 -90 -5
-8 -18 -34 -30 -57 l-21 -43 -21 26 c-18 24 -20 39 -18 153 3 176 10 240 31
287 10 23 21 56 25 72 3 17 12 33 20 36 8 3 23 22 34 44 11 21 33 53 50 71 17
18 31 37 31 41 0 4 16 21 36 36 21 16 44 36 53 44 15 15 83 49 70 36 -3 -4 7
-21 24 -39 19 -20 42 -68 63 -131 32 -97 33 -102 31 -255 -2 -143 -5 -162 -31
-236 -43 -120 -140 -254 -228 -315 -18 -12 -46 -39 -61 -58 -26 -34 -27 -37
-10 -45 14 -6 42 7 113 52 52 33 127 76 166 95 40 19 75 39 78 45 4 6 19 11
34 11 15 1 45 9 67 20 22 11 50 19 61 20 35 0 99 26 158 64 144 92 429 129
656 85 30 -6 60 -15 65 -19 6 -5 12 -8 15 -8 38 -1 134 -47 180 -87 14 -12 41
-31 60 -43 19 -11 45 -31 56 -44 12 -13 31 -31 43 -40 26 -22 27 -63 1 -81
-11 -8 -17 -17 -13 -21 4 -4 0 -4 -9 -1 -9 4 -42 -7 -75 -24 -78 -40 -244 -66
-363 -57 -135 11 -252 34 -274 55 -12 10 -49 29 -84 42 -47 18 -64 30 -69 47
-3 13 -3 25 -1 28 10 10 215 38 273 37 76 0 150 -9 166 -19 7 -4 48 -10 91
-12 67 -4 78 -2 78 11 0 24 -38 44 -95 53 -27 4 -65 13 -84 21 -62 26 -452 29
-436 4 2 -5 -6 -7 -18 -5 -32 5 -222 -50 -220 -64 2 -6 -4 -9 -12 -6 -8 4 -15
1 -15 -6 0 -6 -4 -9 -9 -6 -11 7 -112 -13 -127 -25 -6 -5 -28 -15 -50 -23 -66
-23 -139 -59 -147 -73 -4 -7 -15 -13 -22 -13 -8 0 -15 -4 -15 -10 0 -5 -7 -10
-15 -10 -9 0 -33 -11 -55 -25 -22 -14 -42 -25 -45 -25 -17 0 -145 -113 -139
-122 4 -7 2 -8 -4 -4 -14 8 -168 -137 -208 -197 -28 -41 -59 -74 -122 -129
-16 -14 -34 -33 -39 -40 -4 -7 -45 -38 -90 -68 -70 -46 -80 -56 -70 -70 11
-13 10 -13 -6 -1 -15 12 -20 12 -35 -1 -19 -17 -88 -49 -177 -83 -33 -12 -78
-29 -100 -38 -142 -54 -431 -68 -598 -29 -92 21 -120 20 -152 -8 -11 -10 -52
-37 -92 -60 -39 -24 -86 -52 -105 -64 -18 -11 -67 -32 -108 -46 -49 -16 -75
-30 -75 -40 0 -17 -5 -16 226 -24 94 -3 176 -12 230 -24 46 -11 104 -23 129
-27 25 -4 80 -15 122 -26 43 -11 81 -18 85 -18 4 1 15 -1 23 -4 8 -3 37 -13
64 -22 27 -9 54 -19 60 -23 12 -7 68 -28 201 -72 49 -17 108 -42 132 -56 24
-14 48 -22 55 -18 7 4 8 3 4 -4 -10 -16 7 -15 23 1 10 10 11 9 6 -4 -4 -12 10
-24 58 -47 36 -18 71 -32 79 -32 8 0 19 -5 25 -11 15 -15 40 -5 119 46 37 24
71 42 76 39 4 -3 8 -1 8 4 0 13 90 58 197 98 111 42 279 94 302 94 30 0 57 28
70 72 14 47 64 141 92 173 64 73 130 137 169 162 95 62 237 127 323 148 48 12
84 25 80 30 -5 4 -3 5 4 1 7 -3 67 12 135 36 122 42 124 42 268 42 126 0 151
-3 190 -21 25 -11 60 -24 78 -28 130 -28 343 -177 398 -278 10 -18 21 -27 30
-23 8 3 12 1 9 -4 -3 -5 3 -17 15 -27 25 -21 26 -59 3 -72 -56 -29 -154 -42
-319 -42 -159 0 -177 2 -255 27 -46 15 -97 38 -113 51 -17 14 -35 22 -45 18
-8 -3 -12 -3 -8 1 4 4 -31 29 -78 56 -135 79 -113 101 102 104 82 1 141 -2
137 -7 -3 -5 26 -9 63 -9 58 0 75 -4 103 -25 19 -14 42 -25 53 -25 10 0 30 -9
44 -20 30 -23 73 -27 73 -6 0 7 -12 21 -26 31 -14 9 -34 25 -45 36 -11 11 -27
18 -35 15 -8 -3 -13 -2 -10 2 8 13 -72 48 -139 62 -33 7 -70 19 -82 27 -13 9
-32 13 -43 10 -11 -3 -20 0 -20 5 0 16 -245 5 -264 -11 -10 -8 -33 -11 -63 -8
-82 8 -324 -60 -416 -117 -26 -16 -34 -26 -25 -30 7 -3 4 -4 -8 -1 -21 5 -26
2 -125 -82 -54 -46 -74 -72 -111 -136 -9 -17 -21 -33 -26 -36 -13 -9 -22 -54
-14 -67 4 -7 61 -14 142 -17 146 -6 202 -18 325 -67 l80 -32 215 -2 c201 -2
291 -12 325 -36 11 -8 54 -19 69 -19 5 1 12 -3 15 -8 7 -10 88 -63 96 -63 4 0
24 -14 45 -31 21 -17 43 -28 49 -25 6 4 9 1 6 -7 -3 -7 5 -19 19 -26 13 -7 37
-31 52 -53 16 -22 46 -60 67 -83 41 -46 42 -52 23 -77 -33 -45 -379 -71 -506
-38 -30 7 -62 14 -70 15 -9 0 -20 4 -25 7 -6 3 -28 11 -50 18 -36 11 -62 25
-135 73 -131 87 -160 115 -160 157 0 25 11 25 165 -1 66 -11 147 -23 181 -27
34 -4 72 -15 85 -23 13 -9 41 -19 63 -23 21 -4 63 -18 93 -31 69 -31 153 -44
153 -24 -1 27 -29 51 -71 60 -24 6 -48 18 -55 28 -7 10 -38 23 -71 30 -32 7
-64 18 -71 23 -12 10 -123 41 -207 57 -22 5 -87 17 -145 29 -58 11 -143 27
-190 35 -47 9 -112 25 -145 38 -55 21 -77 22 -280 23 -226 1 -274 -5 -405 -46
-81 -25 -120 -41 -120 -49 0 -4 -15 -12 -32 -19 -18 -6 -76 -31 -128 -55 -52
-24 -103 -46 -112 -49 -10 -3 -18 -14 -18 -24 0 -23 32 -62 52 -62 8 0 23 -7
34 -15 10 -8 25 -15 32 -15 8 0 44 -18 81 -39 37 -22 74 -41 81 -43 8 -2 22
-10 32 -18 9 -9 34 -22 55 -29 20 -8 67 -32 103 -55 36 -23 103 -59 150 -79
47 -21 92 -42 100 -47 94 -55 162 -90 169 -85 5 3 11 2 13 -2 1 -5 30 -18 63
-31 33 -13 67 -27 76 -32 147 -78 241 -120 253 -113 5 3 6 1 3 -4 -8 -13 47
-38 62 -28 6 3 11 2 11 -3 0 -16 85 -50 140 -56 30 -3 87 -12 125 -22 56 -13
102 -15 227 -11 86 3 162 8 168 12 24 15 -13 23 -124 29 -104 6 -195 22 -206
36 -3 3 -30 12 -60 19 -87 20 -240 73 -240 82 0 13 13 18 117 45 84 22 111 25
194 21 58 -4 115 -13 145 -25 27 -11 66 -22 86 -26 35 -6 112 -35 151 -57 10
-5 23 -7 29 -3 6 4 8 3 5 -3 -4 -6 21 -30 54 -54 104 -75 150 -121 143 -145
-6 -22 -40 -43 -84 -51 -14 -2 -32 -10 -40 -18 -8 -7 -35 -16 -60 -20 -25 -4
-61 -16 -80 -28 -67 -39 -319 -35 -415 8 -16 7 -46 17 -65 21 -19 3 -44 13
-55 20 -11 7 -30 15 -40 17 -25 5 -80 36 -110 62 -13 11 -33 27 -46 35 -12 8
-36 28 -53 43 -36 32 -122 77 -147 77 -10 0 -20 4 -24 9 -3 5 -42 24 -88 41
-45 18 -99 41 -119 51 -41 21 -56 23 -77 10 -11 -7 -11 -15 -1 -45 6 -20 17
-39 24 -43 12 -8 56 -95 56 -111 0 -4 9 -14 19 -22 11 -7 18 -17 15 -22 -6 -9
28 -69 60 -103 12 -13 28 -33 36 -46 8 -12 50 -58 93 -102 42 -44 77 -83 77
-88 0 -12 69 -51 80 -44 5 3 8 0 5 -7 -7 -19 3 -30 70 -79 111 -81 373 -200
410 -185 9 3 14 2 11 -3 -9 -13 74 -27 169 -26 83 0 90 2 90 20 0 17 -11 21
-80 33 -44 7 -95 20 -114 28 -19 9 -52 19 -75 22 -23 3 -54 16 -69 28 -26 22
-46 28 -84 27 -7 -1 -11 3 -8 7 5 8 -68 60 -84 60 -5 0 -23 12 -40 26 -31 26
-40 57 -20 70 6 3 75 -2 152 -12 134 -17 147 -20 242 -68 55 -28 106 -50 112
-49 7 0 10 -3 7 -8 -3 -5 2 -9 11 -9 8 0 18 -7 21 -15 4 -8 10 -15 15 -15 9 0
51 -33 78 -62 9 -9 33 -34 54 -56 20 -22 37 -44 37 -49 0 -6 9 -18 20 -28 25
-23 27 -72 3 -79 -26 -8 -170 -37 -233 -46 -41 -7 -83 -4 -170 11 -63 11 -124
22 -136 24 -12 1 -35 10 -52 19 -17 9 -36 16 -43 16 -15 0 -122 50 -129 60
-15 21 -103 79 -112 74 -6 -4 -8 -2 -4 4 3 6 -16 32 -42 59 -27 26 -59 66 -70
88 -11 22 -34 54 -50 72 -16 17 -27 34 -24 37 3 3 -2 6 -11 6 -43 0 -270 275
-319 386 -7 16 -18 33 -25 37 -7 4 -13 17 -13 27 0 11 -5 20 -11 20 -5 0 -8 4
-5 9 3 5 -3 26 -14 48 -26 50 -70 163 -70 179 0 6 -37 31 -82 54 -46 24 -85
46 -88 50 -5 7 -137 70 -146 70 -3 0 -54 28 -112 63 -59 34 -134 73 -167 88
-33 14 -88 42 -123 62 -35 20 -65 37 -67 37 -6 0 -159 70 -175 81 -8 5 -31 16
-50 25 -19 9 -53 25 -75 35 -22 10 -44 19 -49 19 -16 0 -139 51 -181 75 -40
24 -209 79 -276 90 -55 10 -67 -11 -45 -83 10 -31 20 -69 23 -84 3 -16 8 -28
12 -28 3 0 7 -15 8 -34 2 -46 43 -194 57 -209 7 -7 15 -20 19 -30 4 -10 11
-15 17 -12 5 3 7 0 4 -9 -3 -8 20 -66 50 -130 31 -63 56 -119 56 -125 0 -6 6
-14 13 -18 12 -8 24 -25 53 -77 20 -37 167 -238 203 -279 88 -101 185 -196
194 -190 6 3 7 1 3 -5 -4 -6 2 -17 14 -24 11 -7 20 -19 20 -26 0 -7 7 -15 15
-18 8 -4 15 -12 15 -19 0 -19 35 -55 54 -55 10 0 14 -5 11 -10 -9 -14 157
-181 173 -175 8 3 10 0 6 -6 -6 -10 62 -78 78 -79 5 0 25 -15 45 -34 34 -30
93 -66 108 -66 3 0 3 6 -1 12 -3 7 4 1 17 -15 16 -18 39 -30 69 -36 25 -5 53
-12 63 -16 10 -4 17 -3 17 4 0 6 -9 11 -20 11 -12 0 -22 9 -26 24 -4 16 -17
27 -43 35 -24 7 -42 20 -49 36 -6 14 -17 25 -23 25 -7 0 -25 14 -41 30 -15 17
-33 30 -38 30 -18 0 -220 212 -220 231 0 14 7 19 30 19 41 0 140 -27 159 -43
9 -8 54 -35 101 -60 47 -25 105 -64 130 -87 25 -23 48 -44 53 -48 4 -4 21 -24
37 -46 17 -21 30 -33 31 -25 0 8 6 -6 14 -30 7 -24 22 -53 33 -65 10 -11 28
-46 38 -76 10 -30 22 -58 27 -61 4 -3 10 -22 14 -41 4 -30 2 -38 -17 -48 -40
-22 -306 7 -335 36 -7 8 -22 14 -33 14 -38 0 -151 60 -228 122 -44 35 -80 66
-82 69 -1 3 -19 23 -39 45 -20 21 -51 63 -70 92 -19 29 -37 51 -41 48 -4 -2
-8 16 -10 41 -4 75 -34 121 -153 238 -62 60 -128 130 -147 155 -19 24 -40 49
-47 55 -24 20 -161 210 -174 242 -13 32 -46 48 -75 37 -26 -10 -82 -86 -116
-159 -65 -139 -70 -152 -70 -172 0 -11 -10 -42 -22 -69 -29 -67 -29 -198 1
-308 20 -71 88 -244 101 -256 3 -3 11 -16 18 -30 7 -14 28 -45 47 -70 20 -25
43 -56 53 -69 9 -13 61 -68 114 -121 97 -98 169 -150 207 -150 31 0 26 28 -9
48 -16 9 -30 22 -30 29 0 6 -16 26 -36 45 -20 18 -41 39 -48 46 -6 7 -18 21
-26 30 -48 52 -100 121 -115 152 -27 57 -59 114 -77 140 -22 30 -23 63 -4 79
12 10 29 4 88 -29 40 -23 82 -50 93 -59 11 -10 41 -32 67 -50 26 -17 64 -56
85 -86 22 -32 43 -53 51 -50 7 3 11 1 7 -4 -3 -5 6 -23 20 -39 14 -16 25 -35
25 -42 0 -6 4 -9 9 -6 5 4 7 -3 4 -14 -3 -11 4 -36 16 -55 11 -20 21 -45 21
-56 0 -10 4 -19 9 -19 5 0 7 -8 4 -18 -2 -10 3 -46 11 -79 21 -79 15 -93 -38
-93 -61 0 -196 28 -236 49 -19 10 -70 37 -112 60 -47 25 -83 39 -95 35 -15 -5
-16 -4 -3 5 13 10 12 13 -5 26 -42 32 -135 129 -135 142 0 7 -6 16 -14 19 -23
9 -80 113 -104 191 -13 39 -29 77 -37 83 -8 7 -15 17 -15 22 0 5 -7 17 -16 26
-16 16 -15 58 2 128 5 21 4 25 -6 19 -9 -5 -11 -4 -6 4 4 6 12 9 17 6 13 -9
11 14 -6 60 -9 24 -14 79 -14 140 -1 93 2 110 45 235 25 74 56 149 69 167 14
17 25 35 25 39 0 12 63 95 108 141 23 24 42 50 42 57 0 7 -19 51 -42 97 -23
46 -43 94 -45 107 -1 13 -13 43 -27 67 -15 24 -26 53 -26 65 0 12 -4 18 -10
15 -6 -4 -10 -3 -9 2 5 28 -3 53 -17 53 -8 0 -13 3 -10 8 2 4 -9 68 -24 142
-16 74 -29 154 -30 178 0 39 -3 44 -33 57 -18 7 -55 15 -82 17 -28 2 -53 7
-57 12 -3 5 -62 9 -130 9 -97 0 -139 -5 -198 -22 -171 -51 -283 -101 -318
-145 -9 -11 -30 -30 -47 -40 -40 -25 -111 -104 -126 -140 -14 -31 -13 -35 39
-186 16 -47 39 -103 51 -125 11 -22 21 -49 21 -60 0 -11 9 -40 20 -64 11 -24
20 -51 20 -60 0 -15 45 -188 57 -221 4 -8 5 -18 5 -23 -1 -4 10 -51 24 -105
15 -53 28 -122 30 -152 2 -30 11 -109 19 -175 8 -66 19 -244 24 -395 7 -210
13 -286 25 -320 9 -25 18 -64 21 -88 8 -91 62 -186 112 -198 13 -4 23 -10 23
-14 0 -4 26 -15 58 -25 31 -10 61 -21 67 -26 5 -5 23 -9 41 -9 17 0 44 -4 60
-10 105 -34 494 -52 1214 -55 1135 -5 1596 -19 1945 -59 38 -5 215 -45 226
-52 13 -7 -31 -74 -49 -74 -8 0 -23 7 -33 16 -20 18 -272 64 -349 64 -25 0
-88 5 -141 12 -97 12 -179 4 -186 -17 -4 -12 51 -34 98 -40 16 -2 42 -13 57
-23 15 -11 49 -26 76 -33 110 -31 46 -59 -104 -46 -11 1 -20 4 -20 8 0 7 -67
33 -128 49 -23 6 -58 20 -77 32 -25 14 -45 19 -65 14 -17 -3 -30 -2 -30 3 0
26 -619 79 -667 58 -33 -15 -29 -29 27 -88 28 -29 49 -58 47 -64 -2 -5 -20
-11 -40 -13 -43 -4 -53 5 -120 108 l-42 65 -115 6 c-190 10 -480 10 -480 -1 0
-15 35 -43 94 -74 31 -16 56 -33 56 -37 0 -4 18 -14 40 -23 48 -19 51 -33 9
-48 -26 -9 -29 -14 -24 -38 12 -53 -49 -80 -94 -41 -12 10 -35 24 -51 31 -46
19 -37 37 24 50 67 14 81 36 28 46 -44 8 -70 20 -98 46 -12 10 -25 18 -30 17
-5 -1 -22 3 -37 9 -16 7 -32 12 -37 12 -5 0 -10 4 -12 10 -5 17 -193 40 -398
50 -107 5 -251 12 -320 16 -69 3 -137 7 -152 8 -14 0 -24 4 -22 7 5 8 -142 49
-174 49 -49 0 -15 -66 39 -77 16 -3 26 -9 24 -13 -8 -13 71 -38 215 -66 74
-15 146 -34 160 -43 13 -9 42 -21 65 -28 22 -6 65 -18 95 -27 38 -11 97 -16
187 -16 106 0 135 -3 147 -16 9 -8 16 -20 16 -25 0 -6 5 -7 12 -3 7 5 8 3 4
-5 -8 -12 31 -103 47 -109 4 -2 7 -10 7 -18 0 -8 5 -14 11 -14 5 0 8 -4 4 -9
-3 -5 1 -15 8 -23 24 -24 37 -57 35 -86 -2 -27 -5 -29 -43 -28 -38 1 -47 7
-115 81 -40 44 -82 84 -92 89 -10 5 -18 13 -18 18 0 5 -7 16 -15 24 -8 8 -19
22 -24 31 -15 27 -70 21 -98 -11 -28 -33 -29 -65 -4 -97 18 -24 28 -48 36 -90
2 -12 11 -29 18 -38 8 -9 17 -29 21 -44 4 -15 11 -25 16 -22 5 3 7 0 4 -8 -3
-8 2 -20 11 -27 8 -7 15 -21 15 -32 0 -63 -61 -80 -101 -27 -13 17 -36 44 -51
60 -16 17 -28 34 -28 39 0 6 -6 10 -12 11 -7 0 -30 23 -51 50 -21 27 -42 47
-46 44 -5 -3 -7 3 -5 12 3 11 -3 23 -15 30 -17 10 -30 9 -76 -9 -72 -27 -82
-45 -55 -97 11 -22 20 -48 20 -58 0 -23 57 -184 67 -192 17 -13 11 -49 -12
-71 -21 -20 -27 -21 -59 -10 -26 8 -38 19 -46 45 -6 18 -21 44 -33 57 -13 14
-21 31 -19 39 3 8 1 10 -4 6 -4 -4 -15 5 -24 22 -50 96 -75 132 -97 137 -59
15 -104 -26 -80 -74 8 -15 17 -54 21 -87 3 -33 16 -98 27 -144 l21 -85 -22
-18 c-39 -32 -81 -11 -101 50 -6 20 -17 44 -24 52 -7 8 -36 64 -64 123 l-51
108 -47 -6 c-27 -4 -59 -13 -73 -19 -24 -11 -25 -14 -23 -111 2 -55 8 -138 14
-184 11 -78 10 -85 -7 -98 -25 -18 -47 -16 -78 8 -19 15 -26 30 -26 57 0 20
-7 45 -14 55 -8 10 -28 63 -46 118 -21 65 -39 103 -52 110 -25 14 -75 2 -83
-19 -4 -9 -8 -89 -10 -177 -1 -88 -6 -167 -9 -177 -11 -24 -54 -32 -81 -14
-17 11 -23 27 -28 75 -4 34 -13 74 -22 90 -8 16 -20 62 -26 102 -8 52 -17 79
-32 91 -30 27 -97 22 -97 -7 0 -7 -6 -35 -14 -61 -8 -27 -22 -87 -31 -134 -30
-155 -34 -166 -58 -165 -60 2 -76 27 -75 110 0 11 -1 73 -2 138 -2 134 -9 147
-70 147 -44 0 -58 -16 -62 -73 -2 -20 -5 -33 -7 -31 -7 6 -28 -41 -35 -77 -3
-20 -15 -53 -26 -74 -11 -22 -20 -47 -20 -56 0 -27 -33 -48 -71 -46 -39 2 -43
12 -29 87 5 25 11 102 14 172 7 147 10 142 -89 153 l-60 6 -28 -63 c-16 -35
-32 -70 -38 -78 -27 -44 -55 -100 -69 -135 -26 -67 -87 -80 -116 -23 -13 25
-13 30 0 43 18 18 22 30 36 125 6 41 18 97 27 123 12 37 12 51 3 62 -24 28
-121 41 -104 14 3 -5 1 -9 -4 -9 -8 0 -69 -89 -117 -169 -5 -9 -21 -31 -33
-49 -13 -18 -22 -38 -19 -45 4 -11 -25 -14 -69 -9 -23 3 -24 36 -4 90 12 30
19 61 16 69 -3 8 -2 12 3 9 9 -6 26 43 17 51 -2 3 4 13 15 24 10 10 19 28 19
38 0 11 4 23 10 26 14 9 12 73 -2 77 -7 3 -20 -3 -30 -12 -22 -20 -101 -197
-94 -209 3 -5 0 -11 -8 -14 -7 -3 -19 -27 -26 -54 -7 -26 -21 -74 -32 -106
-24 -74 -25 -262 -1 -317 61 -145 144 -228 286 -285 35 -14 73 -25 84 -25 11
0 36 -6 54 -14 19 -8 37 -15 41 -15 4 -1 13 -3 20 -5 154 -45 450 -90 468 -72
7 7 10 6 10 -2 0 -9 32 -12 113 -13 61 0 147 -4 190 -7 42 -4 77 -5 77 -2 0 3
17 4 38 2 21 -2 32 0 25 5 -6 4 55 6 135 5 168 -4 238 5 580 74 42 8 86 19 97
24 11 5 52 16 90 25 39 8 79 19 90 24 11 5 38 14 60 19 49 13 151 51 227 86
31 14 60 26 63 26 30 0 378 181 503 262 15 10 40 25 56 34 15 8 56 36 90 60
33 25 72 52 85 62 13 9 29 22 35 27 6 6 35 28 64 49 29 21 65 50 80 65 16 14
59 53 96 86 77 68 249 242 321 325 26 30 52 60 59 65 6 6 25 31 41 57 16 26
38 49 50 52 11 3 160 6 332 6 290 0 355 -5 373 -28 3 -4 32 -29 65 -57 68 -57
62 -52 173 -140 45 -36 82 -72 82 -80 0 -8 -9 -30 -21 -49 -27 -46 -47 -46
-146 0 -43 20 -96 44 -118 53 -22 10 -63 28 -91 41 -30 13 -57 19 -65 15 -7
-5 -10 -4 -6 2 3 5 -16 20 -42 33 -54 25 -97 22 -108 -8 -7 -18 -57 -85 -85
-114 -10 -10 -18 -21 -18 -26 0 -19 13 -52 21 -52 4 0 32 -26 61 -57 29 -32
101 -107 160 -166 119 -120 126 -136 79 -181 -24 -23 -35 -27 -58 -21 -15 3
-35 13 -43 20 -8 7 -46 30 -85 51 -38 20 -81 45 -94 56 -13 10 -27 15 -32 12
-5 -3 -9 -1 -9 5 0 6 -19 20 -42 32 -24 12 -59 35 -79 50 -20 16 -45 29 -56
29 -19 0 -113 -83 -113 -101 0 -14 28 -66 37 -71 5 -1 25 -29 47 -60 21 -32
43 -55 49 -51 5 3 7 1 3 -5 -3 -5 5 -24 19 -40 14 -16 25 -34 25 -39 0 -5 11
-20 25 -33 14 -13 25 -28 25 -33 0 -10 91 -130 102 -135 4 -2 8 -11 7 -20 0
-18 -73 -82 -94 -82 -7 0 -28 15 -48 33 -20 17 -51 44 -69 59 -18 15 -70 59
-114 97 -45 39 -84 71 -87 71 -5 0 -14 7 -88 69 -20 17 -46 31 -57 31 -19 0
-105 -62 -149 -107 -19 -20 -20 -27 -12 -53 6 -16 15 -30 19 -30 5 0 12 -9 15
-21 7 -20 7 -20 21 -2 14 17 14 17 5 -3 -8 -17 -5 -32 15 -70 14 -27 31 -52
38 -56 6 -4 8 -8 4 -8 -8 0 77 -166 121 -234 17 -28 31 -56 31 -63 0 -20 -31
-50 -64 -63 -34 -13 -33 -14 -138 95 -206 213 -248 258 -248 266 0 5 -7 9 -15
9 -8 0 -15 7 -15 15 0 20 -49 31 -69 16 -9 -6 -29 -19 -45 -29 -36 -21 -77
-61 -73 -70 1 -4 27 -56 56 -117 68 -139 79 -164 87 -198 3 -15 9 -27 13 -27
5 0 14 -18 21 -40 7 -23 24 -55 37 -72 13 -18 23 -40 23 -50 0 -19 -65 -68
-91 -68 -9 0 -32 18 -50 41 -19 23 -43 51 -54 63 -11 11 -47 53 -79 93 -32 40
-63 71 -69 70 -7 -1 -11 4 -9 11 3 15 -103 149 -129 163 -13 6 -19 6 -19 0 0
-6 -6 -8 -13 -5 -7 2 -22 -3 -34 -13 -11 -10 -45 -27 -76 -37 -31 -10 -58 -25
-61 -33 -3 -8 9 -60 28 -116 18 -56 37 -117 41 -135 3 -18 10 -30 15 -27 4 3
7 -1 7 -8 -3 -27 16 -113 29 -131 8 -11 14 -29 14 -39 0 -10 4 -15 10 -12 5 3
7 0 4 -9 -3 -8 -1 -23 5 -33 15 -29 -8 -66 -46 -74 -51 -10 -82 0 -90 29 -6
27 -42 86 -68 113 -8 9 -15 19 -15 23 0 4 -8 19 -18 34 -11 15 -32 47 -48 72
-16 25 -31 47 -34 50 -18 18 -60 89 -65 112 -9 36 -44 43 -109 22 -74 -24 -81
-32 -67 -91 6 -26 17 -79 25 -118 8 -38 19 -88 25 -110 6 -22 11 -57 11 -77 0
-21 3 -38 8 -38 4 0 8 -10 9 -22 1 -13 6 -43 12 -68 15 -68 7 -84 -47 -97 -26
-6 -51 -9 -55 -6 -4 2 -28 46 -54 96 -25 51 -48 94 -52 97 -3 3 -6 10 -6 15 0
6 -21 48 -45 95 -25 47 -57 112 -71 145 -22 52 -29 60 -55 63 -16 2 -58 -6
-93 -18 -35 -11 -74 -20 -87 -20 -36 0 -43 -26 -28 -110 8 -41 18 -155 23
-254 6 -98 12 -181 15 -184 4 -3 -1 -14 -11 -24 -12 -13 -30 -18 -68 -18 l-51
0 -13 51 c-7 28 -19 53 -26 56 -8 2 -11 11 -8 19 5 14 -36 144 -61 194 -7 14
-16 39 -20 55 -10 46 -28 85 -35 80 -4 -2 -7 4 -7 13 0 74 2 72 -72 72 -90 0
-107 -16 -108 -104 -2 -201 -18 -477 -28 -486 -14 -11 -103 -17 -112 -7 -4 3
-8 26 -10 49 -2 24 -13 72 -23 108 -29 103 -43 161 -51 215 -8 51 -35 148 -49
175 -6 11 -26 15 -81 15 -70 0 -74 -1 -81 -25 -16 -55 -40 -178 -38 -191 1 -8
-3 -27 -10 -43 -6 -16 -13 -37 -14 -47 -2 -10 -6 -22 -10 -25 -4 -4 -7 -21 -7
-37 0 -16 -6 -43 -14 -60 -8 -18 -20 -56 -26 -85 l-12 -52 -52 6 c-28 4 -54
12 -58 19 -4 6 -10 130 -13 276 -4 145 -10 268 -15 273 -13 13 -111 27 -142
20 -20 -4 -28 -13 -33 -37 -4 -18 -14 -50 -24 -72 -17 -40 -58 -156 -112 -313
-15 -46 -33 -90 -40 -98 -17 -20 -92 -18 -111 4 -13 14 -14 35 -7 137 5 66 13
148 19 182 6 35 13 103 16 152 l5 90 -48 6 c-26 3 -71 12 -99 20 -28 8 -59 15
-68 15 -17 0 -46 -22 -46 -35 0 -7 -124 -259 -141 -285 -5 -8 -22 -44 -39 -80
-48 -104 -50 -106 -116 -91 l-56 13 7 46 c4 26 11 55 17 65 5 10 11 43 14 75
3 31 14 86 25 121 10 35 19 78 19 95 0 18 7 55 15 82 8 27 15 54 15 60 0 18
-127 65 -155 58 -14 -3 -28 -17 -33 -33 -5 -14 -28 -53 -51 -85 -22 -33 -41
-64 -41 -69 0 -8 -14 -28 -60 -84 -6 -7 -10 -15 -10 -19 0 -4 -11 -21 -23 -38
-13 -17 -36 -53 -52 -80 l-28 -48 -50 6 c-28 3 -54 11 -59 18 -12 17 -3 68 17
113 10 19 18 57 19 84 0 27 5 49 10 48 10 -2 20 23 56 135 12 38 19 72 16 77
-4 5 -1 11 5 13 5 2 13 22 16 46 5 34 3 42 -10 42 -9 0 -54 20 -101 44 -86 44
-126 48 -95 9 12 -16 12 -17 -1 -6 -20 16 -23 14 -113 -97 -43 -52 -101 -121
-130 -154 -29 -32 -55 -66 -58 -75 -4 -9 -18 -26 -32 -39 -20 -19 -31 -22 -61
-16 -20 3 -44 13 -51 21 -19 19 -19 67 0 83 8 7 15 18 15 24 0 6 16 42 35 80
19 38 32 73 29 78 -3 4 -1 8 5 8 6 0 15 18 21 40 6 22 15 40 20 40 6 0 10 6
10 14 0 7 14 38 30 69 39 73 40 114 3 123 -15 4 -47 22 -71 41 -33 25 -48 31
-61 24 -22 -12 -101 -93 -101 -103 0 -5 -7 -8 -15 -8 -8 0 -15 -4 -15 -8 0
-10 -65 -86 -99 -116 -13 -12 -31 -29 -40 -40 -9 -10 -37 -41 -63 -69 -43 -45
-50 -49 -80 -43 -18 3 -38 13 -44 21 -6 8 -16 15 -22 15 -17 0 -22 28 -6 40 8
7 14 20 14 30 0 9 9 25 19 34 11 10 25 32 32 49 7 18 19 38 27 46 7 8 11 22 9
33 -3 10 -1 16 4 13 8 -5 50 67 74 125 5 14 27 51 48 82 20 31 37 61 37 66 0
5 -11 14 -25 20 -14 6 -25 16 -25 22 0 5 -6 10 -13 10 -6 0 -31 18 -55 39 -23
21 -49 42 -58 45 -14 5 -107 -60 -189 -132 -11 -9 -42 -35 -70 -57 -27 -22
-78 -64 -113 -92 -34 -29 -71 -53 -81 -53 -29 0 -81 48 -81 75 0 13 13 37 29
55 47 53 51 58 104 138 28 42 80 114 114 160 35 45 63 90 63 100 0 27 -16 46
-31 37 -8 -5 -11 -4 -6 0 4 5 -9 26 -29 46 -31 32 -40 36 -60 28 -33 -12 -186
-100 -202 -116 -7 -7 -28 -20 -46 -28 -18 -9 -42 -24 -52 -33 -11 -9 -28 -19
-39 -20 -11 -2 -24 -10 -28 -18 -9 -15 -87 -20 -87 -6 0 5 -9 19 -20 32 -23
27 -26 60 -6 60 8 0 16 7 18 15 2 8 68 80 147 160 80 80 146 153 147 162 4 23
-16 45 -33 39 -8 -3 -12 -2 -9 3 8 12 -63 103 -75 96 -5 -3 -6 0 -3 8 7 19
-22 47 -49 47 -12 0 -33 -9 -47 -20 -14 -11 -30 -20 -37 -20 -7 0 -27 -8 -45
-18 -18 -10 -51 -25 -73 -34 -22 -9 -74 -32 -116 -51 -41 -20 -86 -38 -100
-42 -27 -7 -57 14 -78 53 -17 31 6 67 72 112 28 19 67 50 87 67 19 18 38 33
41 33 3 0 28 20 54 45 72 65 98 75 207 75 58 1 108 7 133 16 22 8 52 19 67 24
14 4 39 17 55 28 15 11 73 32 128 47 123 32 145 41 145 59 0 19 1 19 -260 18
-216 -2 -508 -21 -628 -43 -122 -22 -298 -93 -331 -133 -19 -23 -88 -22 -93 1
-4 19 78 103 100 103 7 0 34 10 60 23 58 29 133 51 237 72 44 9 98 20 120 24
91 20 403 33 628 27 127 -4 233 -9 236 -11 20 -12 566 -27 1077 -29 329 -2
673 -7 763 -11 156 -8 367 7 357 24 -2 3 20 7 50 9 130 7 287 99 388 227 22
28 45 55 50 60 18 17 64 116 86 182 42 129 66 443 42 533 -7 25 -21 63 -31 85
-67 146 -72 157 -85 152 -9 -4 -12 0 -10 11 2 10 -14 37 -38 64 -67 73 -88 99
-88 109 0 5 -3 9 -7 9 -5 0 -26 17 -49 38 -71 65 -101 89 -130 108 -16 10 -54
39 -84 63 -30 24 -73 52 -95 62 -22 10 -36 19 -31 19 22 0 -31 29 -55 30 -33
0 -61 -25 -79 -70 -7 -19 -28 -54 -46 -76 -18 -23 -30 -45 -26 -49 4 -5 1 -5
-6 -1 -7 5 -32 -13 -65 -46 -62 -62 -93 -88 -107 -88 -6 0 -10 -4 -10 -10 0
-5 -6 -10 -14 -10 -8 0 -28 -11 -44 -25 -17 -14 -34 -25 -38 -25 -8 0 -33 -11
-116 -52 -10 -4 -26 -8 -36 -8 -9 0 -26 -6 -37 -14 -24 -16 -171 -62 -247 -77
-64 -12 -417 -13 -473 -1 -60 14 -188 52 -208 63 -10 5 -23 7 -30 3 -7 -4 -9
-4 -5 1 4 4 -27 22 -70 40 -42 17 -95 43 -117 57 -36 24 -53 27 -180 33 -148
7 -328 47 -361 80 -8 8 -21 15 -28 15 -18 0 -157 96 -185 128 -13 15 -37 43
-55 62 -41 46 -96 126 -96 138 0 6 -3 12 -7 14 -5 2 -19 24 -33 50 -23 45 -23
49 -8 65 15 14 40 17 175 16 201 0 260 -7 288 -33 12 -11 28 -20 37 -20 19 0
165 -76 185 -96 8 -8 19 -14 25 -14 6 0 20 -10 32 -22 12 -13 33 -32 47 -44
54 -47 109 -117 109 -140 0 -29 -26 -32 -86 -10 -22 7 -59 17 -84 21 -25 4
-52 13 -60 20 -8 7 -35 21 -60 31 -25 10 -61 28 -81 40 -20 13 -39 20 -42 17
-4 -3 -22 4 -40 15 -19 11 -49 23 -66 27 -17 4 -31 10 -31 15 0 13 -121 70
-133 63 -8 -4 -7 -8 2 -11 7 -2 21 -17 30 -34 10 -16 49 -49 87 -73 38 -25 74
-49 80 -54 7 -6 27 -17 45 -25 19 -9 50 -25 69 -36 19 -11 43 -20 52 -20 10 0
18 -4 18 -8 0 -5 26 -16 58 -26 31 -10 64 -24 72 -31 16 -12 100 -40 235 -75
44 -12 100 -30 124 -41 24 -10 48 -19 53 -19 5 0 16 -6 24 -14 14 -14 55 -28
179 -61 83 -22 337 -31 450 -16 128 17 230 44 305 80 36 17 71 31 78 31 7 0
10 5 6 12 -4 7 -3 8 4 4 10 -6 137 56 152 74 3 3 21 17 40 30 42 29 60 51 53
64 -4 5 -1 6 6 2 16 -10 32 4 100 93 59 78 80 131 58 149 -7 5 -38 17 -69 27
-32 10 -58 21 -58 26 0 4 -17 13 -37 19 -21 7 -52 20 -70 30 -31 18 -173 60
-321 94 -67 16 -76 16 -127 1 -83 -24 -226 -34 -350 -24 -123 10 -147 14 -190
33 -16 8 -41 19 -55 25 -91 38 -218 123 -280 187 -19 19 -43 40 -52 45 -21 11
-32 62 -20 86 7 13 36 24 94 37 45 10 105 25 131 33 64 21 307 13 352 -11 17
-9 43 -16 58 -16 59 0 277 -106 277 -135 0 -33 -25 -36 -197 -26 -92 6 -211
18 -263 27 -52 9 -128 18 -167 21 -68 5 -73 4 -73 -15 0 -17 9 -21 57 -27 32
-4 76 -17 98 -29 22 -13 58 -24 80 -25 22 -1 65 -11 96 -22 30 -11 59 -19 65
-18 5 1 16 0 24 -3 29 -11 197 -30 335 -38 174 -11 274 -35 402 -97 17 -8 37
-12 44 -8 7 5 10 4 6 -2 -5 -8 73 -40 118 -49 27 -5 360 -184 384 -205 27 -26
101 -70 101 -62 0 5 5 0 11 -9 5 -10 15 -18 20 -18 6 0 7 5 3 12 -4 7 -3 8 5
4 6 -4 9 -11 6 -16 -2 -4 16 -25 41 -46 25 -22 89 -82 142 -134 89 -87 118
-121 147 -170 21 -36 38 -50 58 -50 18 0 19 4 13 61 -3 34 -6 74 -6 88 0 21
-2 23 -10 11 -7 -11 -8 -6 -4 17 8 42 -15 175 -28 166 -6 -3 -8 -1 -4 5 15 24
-51 363 -85 431 -20 42 -28 64 -80 215 -33 95 -161 335 -217 406 -16 19 -38
51 -49 70 -12 19 -49 61 -82 92 -34 32 -61 61 -61 67 0 12 -55 60 -131 113
-101 71 -112 77 -123 71 -6 -3 -8 -3 -4 2 8 9 -73 55 -97 55 -8 0 -15 4 -15 9
0 16 -163 67 -180 56 -6 -3 -10 -2 -10 3 0 12 -117 20 -399 26 l-214 5 -58
-56 c-32 -31 -56 -61 -52 -67 3 -6 2 -8 -2 -3 -11 10 -46 -23 -38 -36 3 -5 2
-7 -4 -4 -5 3 -43 -25 -83 -63 -41 -39 -78 -70 -83 -70 -5 0 -29 -20 -52 -44
-23 -25 -46 -42 -50 -38 -5 4 -5 -1 -2 -11 4 -11 3 -16 -4 -12 -5 4 -42 -15
-81 -42 -103 -70 -179 -117 -215 -132 -18 -7 -33 -17 -33 -22 0 -5 -7 -9 -15
-9 -8 0 -15 -7 -15 -16 0 -10 -6 -14 -14 -11 -7 3 -17 2 -22 -3 -12 -11 -173
-77 -206 -86 -16 -3 -28 -10 -28 -15 0 -5 -6 -9 -14 -9 -8 0 -16 -5 -18 -11
-2 -5 -23 -15 -48 -20 -24 -6 -58 -16 -75 -24 -16 -7 -79 -23 -140 -35 -60
-12 -114 -25 -119 -30 -5 -5 -15 -6 -23 -3 -7 3 -23 -3 -35 -13 -12 -11 -18
-13 -14 -6 17 29 -56 -1 -88 -37 -10 -11 -50 -35 -88 -53 -42 -19 -67 -36 -64
-44 3 -7 -2 -10 -13 -7 -10 2 -53 -8 -97 -23 -74 -26 -90 -28 -244 -27 -156 0
-169 1 -240 28 -41 15 -87 28 -102 29 -14 1 -25 3 -23 5 7 7 -24 31 -39 31 -9
0 -16 4 -16 9 0 5 -22 18 -49 30 -56 24 -65 33 -56 59 8 25 244 181 275 182 8
0 28 7 44 15 38 20 277 48 341 40 176 -22 260 -38 283 -51 69 -44 -26 -87
-263 -119 -27 -4 -75 -15 -105 -25 -34 -11 -98 -20 -165 -23 -108 -5 -145 -12
-145 -27 0 -38 268 -46 380 -12 36 11 102 23 147 26 81 6 221 45 368 101 87
33 141 51 180 59 90 20 108 28 94 38 -11 8 -10 9 4 4 55 -18 278 81 527 232
47 28 100 64 119 79 19 16 39 30 45 32 6 2 13 7 16 10 3 3 31 26 63 50 31 24
57 48 57 53 0 5 4 7 9 3 5 -3 18 5 28 18 10 13 25 27 35 33 31 17 188 168 188
181 0 17 -33 33 -69 33 -29 0 -145 34 -296 87 -38 13 -112 45 -164 71 -114 57
-116 58 -106 42 9 -14 -7 -8 -35 15 -23 18 -165 54 -330 83 -19 3 -129 6 -245
6 -220 0 -216 1 -460 -60 -62 -16 -259 -106 -270 -124 -3 -5 -15 -10 -25 -10
-10 0 -25 -7 -34 -15 -8 -8 -18 -15 -22 -15 -3 0 -29 -16 -56 -36 -27 -19 -61
-39 -75 -45 -14 -5 -38 -18 -53 -29 -16 -11 -37 -20 -48 -20 -12 0 -24 -5 -27
-10 -4 -6 -11 -7 -17 -4 -6 4 -16 0 -22 -8 -6 -8 -24 -19 -41 -25 -16 -5 -30
-16 -30 -24 0 -22 41 -22 62 -1 11 12 39 22 72 26 30 4 63 14 75 22 11 8 29
14 39 14 23 0 143 56 182 85 16 13 41 26 54 30 19 6 21 9 10 17 -11 7 -9 8 5
4 18 -6 35 0 139 50 36 18 47 18 47 -1 0 -77 -169 -232 -342 -314 -124 -59
-147 -66 -265 -81 -75 -10 -117 -10 -219 0 l-126 14 6 26 c5 25 45 100 88 163
10 15 16 32 13 37 -4 6 -2 9 3 8 6 -2 34 22 64 52 56 58 79 77 125 106 15 10
40 28 55 40 15 12 42 25 60 29 18 4 40 13 48 20 22 18 78 35 115 35 17 0 35 3
38 7 8 8 33 11 146 18 71 4 212 39 331 83 22 8 31 9 78 10 24 1 41 5 39 10
-10 16 285 21 434 7 62 -5 88 -4 93 4 8 13 -27 66 -66 99 -16 13 -28 30 -28
37 0 7 -4 15 -8 17 -4 2 -30 32 -57 68 -27 36 -52 67 -55 70 -12 12 -50 70
-50 78 0 5 -16 26 -35 46 -19 21 -35 42 -35 47 0 5 -4 9 -10 9 -5 0 -10 6 -10
14 0 7 -11 24 -24 37 -13 13 -36 44 -52 69 -41 63 -241 260 -307 302 -6 4 -15
4 -19 2 -5 -3 -7 0 -6 7 4 17 -65 62 -163 105 -95 41 -109 50 -109 71 0 14 59
45 72 37 4 -3 47 -12 95 -20 49 -9 113 -26 143 -39 30 -13 65 -27 77 -30 13
-3 29 -12 35 -19 7 -6 29 -20 48 -30 74 -37 108 -63 175 -134 71 -75 115 -133
115 -151 0 -6 4 -11 9 -11 5 0 12 -12 16 -27 6 -27 45 -113 55 -123 3 -3 7
-27 8 -55 4 -59 46 -139 103 -195 22 -21 39 -42 39 -47 0 -14 49 -55 59 -49 5
3 7 -2 4 -12 -4 -18 46 -72 68 -72 5 0 26 -18 46 -40 20 -23 42 -39 49 -36 8
3 13 0 11 -6 -6 -28 204 -143 298 -163 17 -4 44 -13 60 -20 17 -7 64 -20 105
-30 41 -9 103 -23 137 -31 34 -7 122 -18 195 -24 73 -5 158 -16 188 -24 30 -8
107 -17 170 -20 63 -4 161 -14 217 -23 56 -9 105 -14 109 -10 16 16 -8 58 -46
77 -21 11 -58 38 -82 60 -24 22 -49 38 -55 35 -7 -2 -12 1 -10 8 1 7 -4 11
-10 10 -7 -2 -13 2 -13 8 0 5 -5 7 -12 3 -7 -4 -8 -3 -4 5 11 18 -50 69 -97
81 -112 29 -213 65 -231 82 -11 10 -28 18 -37 18 -10 0 -19 3 -21 8 -1 4 -28
24 -58 44 -30 20 -67 48 -81 62 -15 14 -28 24 -30 23 -2 -1 -3 0 -2 2 2 2 -10
19 -25 37 -15 18 -38 48 -52 68 -14 20 -32 46 -41 57 -9 11 -22 34 -29 52 -26
68 -35 87 -40 87 -5 0 -6 2 -16 137 -5 79 -4 94 9 99 25 9 167 -15 222 -37
126 -53 172 -77 214 -112 25 -20 52 -35 59 -32 7 3 10 1 7 -5 -3 -5 5 -16 18
-25 14 -9 55 -56 92 -106 41 -55 73 -88 81 -85 8 3 11 0 7 -10 -3 -8 3 -26 12
-40 14 -22 15 -28 4 -36 -26 -16 -72 2 -138 55 -36 29 -96 75 -133 101 -38 26
-68 52 -68 57 0 5 -7 9 -15 9 -8 0 -15 5 -15 10 0 6 -4 10 -10 10 -5 0 -27 16
-47 35 -21 20 -44 33 -51 30 -7 -2 -10 0 -7 5 3 6 -1 10 -10 10 -9 0 -27 11
-41 25 -14 14 -27 25 -29 25 -3 0 -5 -11 -5 -25 0 -16 6 -25 15 -25 8 0 15 -7
15 -15 0 -9 7 -18 15 -21 21 -8 105 -89 105 -101 0 -6 18 -23 41 -39 22 -15
46 -35 52 -43 7 -9 37 -38 67 -65 30 -27 74 -67 98 -89 24 -23 69 -61 101 -86
32 -25 98 -80 147 -122 112 -95 112 -95 130 -73 14 18 14 17 4 -4 -12 -25 1
-52 25 -52 8 0 15 -3 17 -7 8 -19 126 -89 141 -85 5 1 6 -2 3 -7 -8 -13 52
-49 113 -67 28 -8 51 -19 51 -24 0 -6 6 -10 13 -10 7 0 34 -13 60 -30 26 -16
59 -32 75 -36 15 -3 54 -15 87 -26 68 -22 232 -51 245 -43 5 3 11 20 14 38 3
18 13 82 23 142 22 139 25 531 5 643 -8 39 -17 70 -20 68 -4 -2 -8 18 -9 45
-2 28 -12 68 -23 91 -11 23 -20 47 -20 53 0 18 -70 159 -88 176 -9 9 -25 26
-35 38 -10 12 -22 19 -27 16 -5 -3 -7 0 -4 8 3 8 -2 17 -10 20 -9 4 -16 14
-16 23 0 10 -3 15 -6 11 -3 -3 -18 6 -32 20 -27 27 -206 117 -232 116 -8 0
-46 6 -84 13 -60 12 -78 12 -147 -2 -43 -9 -84 -14 -91 -11 -7 2 -26 0 -43 -5
-16 -5 -46 -11 -65 -14 -19 -3 -51 -10 -70 -15 -19 -6 -159 -13 -310 -16 -292
-6 -495 5 -569 32 -24 8 -68 17 -98 19 -30 3 -66 12 -80 22 -15 9 -38 18 -52
19 -43 4 -84 17 -130 42 -24 12 -50 23 -58 23 -8 0 -28 9 -44 20 -15 12 -43
26 -61 32 -37 13 -41 16 -108 76 -35 31 -50 53 -55 79 -6 35 -40 112 -54 123
-3 3 -7 16 -9 30 -1 13 -11 34 -22 45 -11 12 -20 26 -20 31 0 5 -18 34 -41 64
-55 73 -129 140 -179 163 -14 6 -28 17 -33 24 -4 6 -21 14 -38 18 -16 4 -41
17 -55 30 -26 24 -54 24 -54 -1 0 -8 7 -15 15 -15 8 -1 20 -2 25 -3 6 0 16
-12 23 -26 7 -13 22 -27 34 -30 20 -5 79 -57 144 -127 14 -15 38 -50 54 -78
16 -27 33 -51 37 -53 4 -2 8 -10 8 -19 0 -8 16 -46 35 -85 33 -68 35 -85 10
-116 -7 -9 -184 79 -223 112 -94 78 -154 138 -177 177 -5 9 -26 41 -46 70 -20
30 -47 85 -59 123 -16 48 -25 64 -31 55 -7 -11 -9 -9 -7 6 1 11 -2 41 -6 68
-13 72 -2 79 110 75 50 -2 90 -6 88 -9 -5 -8 34 -23 116 -45 71 -19 128 -47
204 -99 27 -19 54 -31 59 -28 6 3 7 1 3 -5 -7 -12 33 -44 46 -36 5 3 7 1 6 -4
-2 -6 18 -35 45 -65 26 -31 47 -60 47 -66 0 -6 5 -11 11 -11 5 0 17 -17 25
-37 8 -21 21 -49 28 -63 13 -23 23 -58 40 -133 4 -15 11 -25 16 -22 5 3 12 0
16 -6 4 -8 3 -9 -4 -5 -7 4 -12 3 -12 -3 0 -13 67 -81 81 -81 6 0 23 -8 37
-19 15 -10 45 -24 67 -31 22 -7 59 -21 83 -32 23 -10 57 -21 75 -24 17 -3 59
-15 92 -26 48 -16 100 -21 276 -26 243 -8 253 -7 245 16 -5 14 -3 13 8 -2 8
-10 19 -15 25 -11 23 14 9 34 -42 63 -52 29 -187 151 -187 168 0 8 -44 69 -80
112 -6 7 -15 10 -20 7 -6 -3 -7 1 -4 9 7 18 -24 79 -36 71 -6 -3 -7 0 -5 8 13
32 -27 87 -115 162 -87 74 -160 156 -160 179 0 7 -13 30 -29 52 -29 39 -31 43
-31 67 0 8 -9 24 -20 37 -24 27 -25 32 -40 160 -9 70 -9 116 -1 174 6 44 9 81
7 83 -7 8 22 83 39 99 8 9 15 22 15 30 0 19 47 109 65 124 24 20 70 -11 155
-105 83 -92 112 -135 142 -215 9 -25 27 -72 39 -105 20 -53 23 -78 23 -212 0
-173 -6 -193 -54 -168 -15 8 -35 29 -43 47 -31 64 -63 109 -72 101 -4 -4 -5
-2 -1 5 4 7 -1 28 -12 46 -11 18 -23 49 -27 67 -4 19 -11 39 -15 44 -8 9 -31
89 -44 146 -7 32 -54 57 -63 33 -12 -33 5 -139 31 -188 14 -27 26 -55 26 -62
0 -18 69 -193 88 -221 8 -13 18 -21 22 -18 5 3 6 -3 3 -13 -2 -10 6 -29 17
-42 12 -14 29 -38 37 -55 9 -16 33 -52 53 -80 21 -27 61 -96 90 -153 31 -61
56 -100 62 -96 7 5 8 2 3 -5 -8 -14 43 -73 56 -65 5 3 6 -1 4 -8 -7 -19 77
-102 163 -160 107 -73 273 -124 308 -96 15 11 355 40 452 39 l72 -1 0 30 c0
25 -8 35 -52 63 -55 35 -198 171 -257 244 -19 23 -39 39 -44 36 -7 -4 -8 1 -3
12 4 10 3 21 -1 24 -9 7 -59 81 -65 96 -11 29 -52 85 -62 85 -7 0 -30 18 -51
40 -22 22 -45 38 -52 36 -6 -3 -10 0 -8 7 3 7 -10 28 -28 47 -18 19 -46 60
-62 90 -15 30 -32 62 -37 70 -5 8 -14 27 -21 43 -7 15 -17 24 -22 20 -4 -5 -5
-2 -1 5 5 8 0 34 -10 60 -16 39 -19 75 -19 205 0 109 4 160 12 165 6 4 15 25
19 47 10 56 28 95 59 128 14 15 28 27 31 27 15 0 118 -88 181 -153 68 -72 133
-176 148 -239 4 -16 10 -28 14 -28 21 0 34 -77 38 -230 4 -144 3 -168 -11
-179 -14 -12 -19 -11 -36 4 -11 10 -20 24 -20 32 0 8 -5 11 -12 7 -6 -4 -8 -3
-5 3 4 6 -6 35 -22 64 -71 136 -84 159 -92 159 -5 0 -12 18 -15 41 -4 22 -13
46 -20 54 -8 7 -17 38 -20 69 -11 88 -54 105 -54 21 0 -28 6 -50 17 -61 9 -9
20 -40 25 -68 13 -90 16 -100 37 -149 11 -26 18 -53 15 -60 -2 -7 7 -28 21
-47 14 -19 25 -40 25 -48 0 -7 4 -11 9 -8 5 3 8 -2 7 -12 0 -9 4 -16 11 -15 7
2 10 -3 7 -11 -8 -20 38 -106 86 -161 23 -26 48 -65 57 -86 8 -22 18 -39 22
-39 5 0 13 -12 20 -27 10 -22 14 -24 22 -12 9 12 10 12 6 -1 -6 -20 11 -52 24
-45 5 4 8 1 7 -7 -2 -7 5 -12 14 -12 9 1 14 -4 12 -10 -6 -15 59 -78 77 -74 9
2 13 -4 11 -14 -2 -12 17 -31 60 -58 34 -23 65 -44 68 -48 9 -12 89 -62 100
-62 5 0 10 -4 10 -9 0 -5 21 -17 48 -27 26 -10 53 -24 60 -31 7 -7 18 -13 24
-13 6 0 38 -13 72 -29 34 -16 84 -39 111 -52 95 -44 247 -224 287 -340 6 -19
14 -36 18 -39 16 -13 42 -87 47 -136 6 -56 21 -74 54 -69 19 3 72 53 88 83 6
12 33 47 59 79 73 88 110 168 116 250 0 11 4 19 8 17 11 -7 21 81 13 118 -13
60 -46 152 -70 193 -28 49 -141 151 -162 147 -8 -2 -12 1 -9 7 8 12 -102 96
-156 120 -21 9 -41 24 -44 34 -3 9 -9 17 -14 17 -18 0 -143 136 -194 210 -49
72 -92 160 -121 245 -28 83 -55 148 -68 164 -8 9 -26 61 -42 116 -25 92 -27
109 -22 230 3 82 11 146 21 173 9 24 14 48 11 53 -4 5 -1 9 4 9 6 0 11 10 11
23 0 12 9 33 20 47 11 14 20 29 20 34 0 16 91 128 139 174 25 23 45 48 43 55
-2 6 0 9 4 5 9 -10 36 11 29 22 -3 5 0 12 6 16 8 4 9 3 5 -4 -11 -18 6 -14 34
8 17 14 37 19 65 18 35 -3 40 -6 45 -33z m-810 -50 c12 -13 27 -22 31 -19 5 3
6 -1 4 -8 -3 -8 8 -29 24 -47 18 -20 42 -68 57 -114 23 -68 26 -96 26 -190 -2
-164 -44 -292 -97 -292 -6 0 -10 72 -11 195 0 196 -6 233 -39 266 -8 9 -15 24
-15 35 0 10 -4 19 -9 19 -13 0 -21 -39 -9 -46 7 -5 8 -36 3 -93 -4 -47 -10
-122 -13 -165 -5 -58 -11 -82 -24 -89 -26 -17 -45 7 -73 95 -29 91 -34 211
-11 274 36 101 99 204 125 204 4 0 18 -11 31 -25z m1129 -564 c32 -32 65 -101
81 -171 14 -66 12 -216 -5 -290 -9 -36 -16 -72 -18 -80 -1 -8 -5 -17 -8 -20
-4 -3 -27 -33 -52 -67 -63 -85 -80 -103 -94 -103 -19 0 -16 57 7 122 26 75 40
171 43 297 1 69 -2 105 -9 108 -7 2 -14 -13 -18 -35 -3 -22 -12 -45 -20 -51
-8 -7 -20 -43 -26 -82 -7 -38 -17 -75 -24 -82 -6 -6 -27 -58 -46 -114 -32 -96
-36 -103 -60 -103 -21 0 -31 9 -50 48 -22 42 -24 60 -23 158 1 92 4 117 22
153 12 23 19 46 16 51 -3 6 -2 10 2 10 5 0 37 42 70 93 34 51 72 102 85 113
13 11 33 33 45 47 29 34 45 34 82 -2z m2908 -142 c28 -28 -18 -158 -80 -227
-21 -24 -36 -50 -33 -57 3 -9 0 -12 -8 -9 -8 3 -34 -9 -59 -26 -32 -23 -51
-30 -66 -25 -25 8 -18 26 26 72 33 34 125 141 135 156 9 14 1 27 -16 27 -16 0
-187 -136 -271 -214 -68 -64 -89 -68 -93 -16 -4 65 110 232 179 260 16 7 27
15 25 19 -2 3 9 6 24 7 15 1 45 10 67 22 42 23 151 30 170 11z m-3871 -274
c16 -14 32 -25 37 -25 13 0 127 -183 136 -220 18 -67 23 -157 11 -179 -9 -18
-14 -20 -33 -10 -27 15 -57 45 -57 59 0 5 -4 10 -10 10 -5 0 -10 5 -10 11 0
12 -40 99 -50 109 -3 3 -6 22 -6 43 -2 48 -17 66 -40 46 -14 -11 -15 -26 -10
-93 7 -84 21 -118 39 -94 6 10 7 8 3 -4 -10 -32 26 -110 73 -159 48 -49 56
-79 29 -105 -35 -36 -140 56 -204 178 l-38 73 0 135 c-1 110 2 141 17 167 9
18 16 35 15 37 -6 9 36 46 52 46 9 0 30 -11 46 -25z m1912 -110 c2 -112 0
-138 -19 -187 -19 -52 -65 -108 -88 -108 -18 0 -20 16 -7 42 8 15 17 46 21 70
4 24 16 60 26 80 25 49 26 111 2 106 -10 -2 -21 -18 -27 -36 -5 -17 -15 -32
-22 -32 -8 0 -14 -6 -14 -14 0 -8 -4 -16 -8 -18 -8 -3 -72 -160 -72 -177 0 -5
-5 -11 -11 -13 -6 -2 -12 -15 -12 -30 -1 -14 -5 -24 -8 -22 -4 2 -10 -7 -13
-21 -7 -27 -39 -34 -53 -12 -10 16 -21 137 -12 137 4 0 13 31 19 70 6 38 16
73 21 76 6 3 17 23 25 44 9 22 24 42 35 45 10 4 19 12 19 18 0 15 37 50 70 67
14 7 27 16 30 19 10 13 56 30 75 28 19 -2 20 -10 23 -132z m-3722 -163 c105
-48 181 -113 214 -185 28 -58 58 -192 46 -204 -13 -13 -54 17 -61 44 -10 43
-69 133 -114 178 -23 21 -41 44 -41 51 0 12 -22 24 -42 24 -15 0 -1 -63 17
-73 8 -4 15 -16 15 -26 0 -10 9 -28 20 -41 11 -13 20 -29 20 -37 0 -8 3 -12 8
-10 4 3 8 -7 9 -21 2 -15 4 -38 5 -52 5 -40 -27 -36 -72 8 -22 21 -40 44 -40
50 0 6 -5 12 -10 14 -14 4 -59 117 -60 147 0 13 -5 41 -11 62 -10 32 -9 42 5
64 19 30 40 31 92 7z m6016 -89 c-10 -4 -9 -9 5 -20 17 -13 16 -13 -4 -4 -28
14 -36 14 -27 -1 5 -7 3 -8 -6 -3 -10 6 -9 11 5 22 11 7 24 13 29 12 6 0 5 -3
-2 -6z m-336 -28 c14 -36 -84 -139 -191 -201 -33 -20 -67 -40 -75 -45 -8 -5
-41 -22 -72 -38 -32 -15 -55 -30 -53 -33 2 -2 -4 -4 -13 -5 -9 -1 -53 -9 -97
-17 -90 -18 -151 -20 -159 -7 -6 9 26 51 38 51 3 0 25 11 47 25 22 14 76 39
120 55 44 17 90 35 102 42 21 11 21 11 2 18 -15 6 -11 7 15 7 40 -1 200 74
255 120 6 4 17 8 25 8 8 0 15 7 14 15 -1 20 35 24 42 5z m475 -1 c14 -13 16
-21 8 -42 -6 -15 -15 -53 -20 -84 -10 -60 -68 -181 -100 -209 -11 -9 -19 -21
-19 -28 0 -6 -4 -11 -9 -11 -5 0 -31 -18 -57 -41 -63 -52 -115 -79 -154 -79
-47 0 -41 39 13 82 23 18 44 36 45 40 2 5 9 8 15 8 7 1 35 30 62 67 28 36 65
81 83 101 33 35 40 56 22 67 -14 9 -70 -23 -70 -40 0 -8 -5 -15 -10 -15 -17 0
-82 -69 -75 -80 3 -6 -1 -7 -9 -4 -9 4 -18 -1 -22 -10 -3 -9 -12 -16 -19 -16
-6 0 -20 -9 -30 -20 -19 -21 -50 -27 -60 -11 -7 13 23 90 49 122 12 15 29 38
40 52 10 15 27 29 37 32 11 4 19 12 19 18 0 12 83 67 101 67 6 0 27 11 47 25
42 29 87 32 113 9z m-6116 -24 c3 -6 -1 -7 -9 -4 -18 7 -21 14 -7 14 6 0 13
-4 16 -10z m-919 -70 c0 -12 -4 -16 -9 -11 -5 5 -6 14 -3 20 10 15 12 14 12
-9z m3685 -413 c-10 -9 -11 -8 -5 6 3 10 9 15 12 12 3 -3 0 -11 -7 -18z m1596
-19 c-3 -8 -6 -5 -6 6 -1 11 2 17 5 13 3 -3 4 -12 1 -19z m2073 2 c13 -20 2
-122 -21 -194 -10 -32 -33 -75 -51 -97 -18 -21 -44 -52 -57 -70 -14 -17 -37
-39 -53 -49 -15 -9 -25 -20 -20 -25 4 -5 2 -5 -5 -1 -7 4 -29 -4 -50 -18 -39
-25 -129 -54 -195 -63 -42 -6 -55 9 -44 50 10 41 187 227 216 227 5 0 15 9 24
21 8 12 30 32 50 45 34 24 46 47 28 58 -11 7 -82 -12 -82 -22 0 -4 -17 -18
-38 -32 -20 -14 -41 -28 -47 -33 -34 -25 -84 -59 -112 -74 -18 -9 -33 -20 -33
-24 0 -4 -20 -31 -44 -61 -23 -29 -46 -63 -50 -76 -4 -12 -15 -22 -26 -22 -34
0 -33 57 4 125 9 17 16 36 16 44 0 7 14 39 31 70 33 59 78 106 141 148 21 14
36 29 33 33 -2 3 1 7 8 7 22 1 95 23 124 39 39 21 239 16 253 -6z m-1035 -8
c-3 -3 -11 0 -18 7 -9 10 -8 11 6 5 10 -3 15 -9 12 -12z m-380 -47 c88 -17
144 -35 161 -50 12 -12 24 -86 13 -79 -4 2 -17 -11 -29 -31 -43 -70 -202 -181
-275 -192 -11 -2 -53 -10 -92 -17 -83 -15 -108 -7 -108 38 -1 14 1 23 3 21 3
-2 28 15 57 39 29 23 73 50 99 60 27 10 43 22 40 28 -4 7 -2 8 5 4 6 -4 36 -2
66 5 47 11 55 15 55 36 0 22 -4 23 -64 23 -51 0 -84 -8 -155 -36 -50 -20 -91
-40 -91 -45 0 -5 -4 -9 -10 -9 -11 0 -26 -12 -97 -77 -53 -49 -85 -54 -109
-19 -14 23 -14 28 1 58 18 38 106 133 150 163 46 31 107 56 187 75 93 23 98
23 193 5z m-1208 -15 c26 -6 56 -18 65 -27 19 -17 25 -83 9 -83 -5 0 -26 -23
-46 -51 -56 -78 -156 -158 -197 -159 -10 0 -18 -4 -18 -8 0 -4 -8 -8 -17 -8
-10 -1 -45 -7 -78 -14 -99 -21 -265 10 -265 49 0 18 30 31 96 45 129 26 209
47 244 65 19 9 54 23 78 31 23 7 42 16 42 19 0 3 3 16 6 29 5 16 2 22 -10 22
-9 0 -16 -3 -16 -7 0 -5 -15 -8 -32 -8 -18 0 -64 -10 -103 -22 -38 -11 -111
-26 -160 -33 -120 -15 -149 -4 -105 40 24 24 26 34 4 26 -9 -3 -12 -2 -9 5 4
6 14 8 22 5 8 -3 29 5 46 18 50 37 92 55 160 70 68 15 207 13 284 -4z m-5109
-106 c12 -4 22 -12 22 -20 0 -7 12 -21 28 -31 15 -10 36 -26 46 -35 11 -10 25
-18 31 -18 7 0 22 -9 35 -20 12 -11 27 -17 33 -13 5 3 7 1 4 -4 -4 -6 0 -13 8
-17 8 -3 15 -12 15 -20 0 -16 27 -29 42 -19 6 3 8 2 5 -4 -3 -5 13 -28 36 -49
23 -22 51 -52 62 -67 11 -15 27 -29 36 -32 9 -3 21 -17 27 -31 7 -13 16 -30
22 -37 5 -7 22 -28 37 -47 58 -71 56 -69 43 -85 -18 -21 -45 -19 -104 9 -28
13 -62 29 -76 35 -72 33 -113 63 -189 136 -46 44 -90 93 -98 110 -20 37 -39
56 -47 47 -4 -3 -4 1 0 11 4 11 -3 31 -19 55 -42 60 -59 109 -47 132 12 22 14
23 48 14z m5982 -128 c0 -2 -8 -10 -17 -17 -16 -13 -17 -12 -4 4 13 16 21 21
21 13z m-4809 -34 c13 -10 49 -29 80 -41 38 -15 82 -46 132 -91 41 -38 78 -66
82 -62 5 4 5 2 2 -4 -3 -6 5 -33 18 -60 14 -27 25 -54 25 -61 0 -7 6 -16 13
-20 20 -12 34 -53 48 -136 10 -59 10 -82 1 -102 -7 -14 -17 -23 -22 -20 -6 3
-10 1 -10 -4 0 -7 -7 -7 -20 1 -11 7 -20 19 -20 26 0 17 -51 145 -60 152 -4 3
-10 14 -14 26 -3 11 -20 36 -37 55 -17 19 -40 51 -51 73 -19 38 -63 86 -79 86
-4 0 -11 9 -14 20 -7 21 -39 27 -50 10 -4 -6 5 -24 19 -41 14 -17 26 -37 26
-44 0 -7 11 -26 24 -42 13 -15 26 -38 30 -51 4 -12 25 -61 47 -107 72 -157 41
-177 -80 -53 -39 40 -71 75 -71 79 0 4 -7 12 -15 19 -8 7 -24 33 -35 58 -18
40 -22 43 -37 31 -16 -13 -17 -12 -4 3 10 14 11 24 2 50 -7 18 -15 80 -18 137
-6 94 -4 105 12 117 25 19 48 17 76 -4z m1653 -77 c15 -8 34 -15 40 -15 15 0
89 -47 162 -102 48 -36 124 -132 124 -156 0 -7 4 -12 9 -12 5 0 12 -11 15 -25
4 -16 11 -23 18 -19 7 4 8 3 4 -4 -4 -7 -4 -18 1 -24 4 -7 8 -15 9 -18 0 -3 6
-18 13 -35 34 -81 33 -253 -1 -345 -26 -66 -35 -80 -57 -80 -19 0 -63 45 -54
54 4 3 2 6 -4 6 -6 0 -8 11 -5 25 3 17 -4 38 -21 63 -14 20 -30 55 -37 77 -7
22 -16 45 -20 50 -3 6 -12 29 -19 53 -6 23 -16 42 -21 42 -6 0 -9 3 -8 8 3 11
-53 125 -67 137 -7 5 -16 28 -20 50 -4 22 -15 49 -26 60 -10 12 -20 32 -22 45
-4 27 -21 37 -32 20 -4 -7 3 -26 16 -43 17 -24 22 -42 20 -79 -1 -29 6 -70 17
-101 11 -29 23 -72 27 -96 4 -25 13 -51 21 -58 7 -8 18 -33 24 -56 6 -23 19
-60 29 -82 16 -35 17 -43 5 -60 -12 -16 -17 -17 -39 -5 -13 7 -44 36 -67 64
-23 28 -46 53 -50 54 -5 2 -8 10 -8 18 0 8 -4 14 -10 14 -5 0 -10 5 -10 12 0
6 -7 19 -15 28 -8 9 -27 50 -41 91 -34 98 -43 249 -19 329 9 30 19 69 22 85 9
48 43 58 97 30z m-3047 -248 c11 -1 19 -5 16 -9 -2 -5 5 -8 17 -8 66 0 223
-120 266 -203 9 -16 20 -25 26 -21 7 4 8 3 4 -4 -4 -6 0 -35 9 -64 12 -41 12
-53 3 -60 -21 -13 -48 -9 -76 11 -15 10 -44 24 -64 30 -20 7 -41 18 -48 26
-10 12 -48 26 -60 22 -6 -2 -54 38 -86 71 -20 21 -110 72 -126 72 -20 0 -3
-32 40 -77 121 -126 238 -213 264 -197 4 3 8 1 8 -3 0 -5 20 -14 45 -21 51
-14 56 -25 20 -48 -20 -13 -37 -15 -83 -9 -68 8 -145 26 -152 35 -3 3 -31 17
-63 29 -73 30 -164 120 -205 205 -43 88 -43 87 -54 176 -2 20 4 29 32 43 30
16 50 17 140 12 58 -3 115 -7 127 -8z m6412 -33 c17 -14 31 -31 31 -38 0 -6 9
-28 20 -48 26 -49 39 -163 27 -236 -5 -31 -10 -67 -11 -78 0 -12 -5 -20 -11
-18 -5 2 -18 -15 -28 -38 -19 -46 -105 -143 -136 -153 -30 -9 -45 18 -28 52
25 51 66 217 76 313 14 134 14 137 -21 100 -15 -17 -28 -37 -28 -44 0 -65
-114 -306 -145 -306 -23 0 -25 13 -26 128 0 156 21 215 109 305 93 95 120 105
171 61z m-209 -78 c0 -2 -8 -10 -17 -17 -16 -13 -17 -12 -4 4 13 16 21 21 21
13z m-5039 -113 c13 -16 12 -17 -3 -4 -10 7 -18 15 -18 17 0 8 8 3 21 -13z
m1044 -211 c-3 -3 -11 0 -18 7 -9 10 -8 11 6 5 10 -3 15 -9 12 -12z m5270 -80
c22 -11 58 -28 80 -38 49 -23 75 -44 75 -62 0 -17 -29 -61 -57 -88 -13 -12
-23 -26 -23 -33 0 -6 -3 -11 -7 -11 -5 0 -21 -12 -38 -26 -16 -14 -44 -34 -62
-45 -107 -67 -380 -85 -399 -26 -8 26 5 36 98 72 40 15 91 36 113 45 22 10 56
21 75 26 19 4 38 9 43 10 4 1 22 2 40 3 17 1 41 8 52 17 17 13 18 16 5 24 -24
16 -214 12 -257 -5 -21 -8 -74 -24 -118 -36 -44 -12 -97 -30 -118 -41 -62 -31
-97 -2 -58 48 12 15 21 23 21 18 1 -5 6 1 13 13 18 32 82 79 156 114 98 47
107 49 221 45 81 -3 114 -8 145 -24z m1260 -30 c-6 -7 52 -42 69 -42 7 0 21
-9 31 -20 10 -11 23 -20 28 -20 5 0 20 -12 32 -26 28 -32 19 -61 -26 -88 -16
-9 -29 -21 -29 -27 0 -5 -20 -18 -45 -30 -25 -12 -43 -24 -41 -28 2 -3 -41 -8
-95 -9 -85 -3 -111 0 -184 23 -81 25 -85 28 -85 55 0 37 8 40 192 54 81 7 150
15 153 18 12 12 -9 37 -36 43 -17 4 -99 5 -184 3 -84 -1 -156 0 -160 4 -15 15
17 45 69 62 31 11 56 23 56 27 0 4 58 7 130 6 71 0 128 -3 125 -5z m-3685 -52
c23 -55 -12 -175 -81 -283 -38 -58 -78 -94 -134 -121 -16 -8 -33 -18 -37 -22
-27 -27 -233 -77 -259 -63 -9 4 -20 5 -24 1 -4 -4 -1 7 6 23 7 17 33 51 58 77
25 25 53 54 62 65 8 10 30 29 49 43 86 64 190 155 190 167 0 15 -45 18 -63 3
-27 -23 -118 -79 -137 -85 -11 -3 -20 -11 -20 -16 0 -6 -16 -17 -34 -24 -35
-15 -146 -118 -146 -136 0 -10 -43 -13 -52 -4 -11 12 15 112 38 146 13 19 24
40 24 46 0 21 111 120 169 151 36 19 87 36 132 43 41 7 77 15 81 18 4 3 43 5
87 3 77 -3 80 -4 91 -32z m-3837 -356 c64 -8 82 -36 35 -58 -18 -8 -64 -20
-103 -26 -38 -6 -79 -17 -90 -24 -19 -12 -71 -26 -160 -42 -22 -4 -44 -8 -50
-9 -5 -1 -16 -3 -23 -3 -7 -1 -11 -6 -8 -11 4 -5 -4 -7 -16 -4 -17 4 -20 3
-12 -6 12 -13 185 -19 264 -8 30 4 126 21 214 38 141 28 160 29 173 16 10 -10
13 -24 10 -39 -10 -36 -129 -131 -225 -179 -48 -24 -89 -46 -92 -50 -3 -4 -68
-6 -145 -5 -108 1 -147 5 -170 17 -16 9 -72 38 -124 65 -51 26 -100 59 -109
72 -14 22 -13 25 19 59 105 110 126 127 201 158 111 47 237 59 411 39z m-1660
-89 c-3 -9 -8 -14 -10 -11 -3 3 -2 9 2 15 9 16 15 13 8 -4z m7287 -142 c106
-36 119 -43 113 -62 -9 -26 -134 -149 -188 -185 -87 -58 -119 -73 -196 -91
-167 -38 -479 -9 -479 45 0 26 45 45 141 60 141 21 312 60 344 79 27 17 85 33
159 45 36 6 44 15 27 26 -25 15 -115 20 -171 10 -132 -24 -280 -42 -304 -36
-36 9 -32 33 7 41 17 4 39 13 47 20 19 17 71 39 87 36 7 -1 27 6 45 15 37 19
157 33 238 27 30 -2 89 -15 130 -30z m-3998 -53 c29 -11 59 -20 65 -20 7 0 40
-12 73 -27 60 -28 74 -49 48 -70 -25 -19 -134 -34 -278 -39 -203 -7 -204 -7
-208 -29 -3 -14 1 -17 17 -12 12 3 19 1 16 -3 -7 -11 79 -24 100 -17 8 4 17 2
20 -3 7 -11 192 -12 278 -1 51 6 60 5 68 -11 11 -21 4 -38 -15 -38 -7 0 -24
-8 -37 -18 -13 -10 -51 -26 -84 -36 -33 -10 -65 -22 -71 -28 -24 -19 -278 -32
-266 -14 3 5 -2 6 -12 3 -9 -4 -15 -3 -12 2 3 4 -28 21 -69 36 -78 30 -195
115 -195 142 0 16 42 57 115 113 47 35 166 80 250 93 52 9 142 -2 197 -23z
m-3153 -204 c40 -13 76 -28 80 -33 3 -6 19 -14 35 -20 35 -11 52 -34 43 -58
-8 -19 -33 -18 -132 4 -68 16 -270 17 -321 2 -45 -12 -64 -37 -36 -45 9 -2 73
-12 142 -21 183 -23 187 -24 210 -43 20 -16 20 -19 6 -31 -22 -18 -167 -34
-251 -27 -85 8 -218 50 -263 84 -27 20 -32 31 -30 55 3 26 14 37 74 73 64 37
129 64 189 77 61 14 183 6 254 -17z m5615 -181 c11 -8 16 -15 10 -15 -5 0 -18
7 -28 15 -11 8 -16 15 -10 15 5 0 18 -7 28 -15z m-1941 -42 c-3 -7 -6 -13 -8
-13 -2 0 -5 6 -8 13 -3 8 1 14 8 14 7 0 11 -6 8 -14z m5032 -3 c3 -6 -1 -7 -9
-4 -18 7 -21 14 -7 14 6 0 13 -4 16 -10z m-5140 -13 c17 -1 32 -5 35 -8 3 -3
24 -13 47 -22 23 -9 72 -37 108 -62 37 -25 71 -43 76 -39 5 3 8 2 7 -3 -1 -4
26 -37 60 -72 34 -35 62 -68 62 -73 0 -5 4 -7 8 -4 5 3 9 0 10 -7 1 -7 5 -27
8 -44 5 -28 3 -33 -13 -33 -24 0 -110 61 -187 133 -23 21 -52 44 -66 51 -14 8
-49 30 -78 50 -51 34 -82 38 -82 10 0 -8 5 -14 11 -14 6 0 52 -42 102 -93 142
-144 247 -238 258 -232 5 4 8 3 7 -2 -5 -14 30 -56 40 -49 6 3 13 -2 17 -13 3
-10 15 -21 25 -24 14 -4 20 -14 20 -32 l0 -28 -57 7 c-31 4 -89 18 -130 32
-40 14 -78 22 -85 18 -7 -4 -8 -3 -4 5 4 6 0 14 -11 18 -10 4 -23 12 -29 17
-7 6 -26 22 -44 36 -82 65 -122 112 -166 195 -12 22 -27 39 -34 37 -6 -1 -9 1
-6 6 7 12 -14 105 -29 122 -19 23 -27 87 -15 111 10 18 18 20 58 15 26 -4 61
-7 77 -9z m1601 -304 c3 -13 10 -23 15 -23 5 0 9 -5 9 -10 0 -6 23 -45 51 -87
27 -42 57 -90 66 -106 15 -29 24 -42 51 -72 7 -8 10 -15 6 -15 -4 0 5 -11 20
-25 14 -13 26 -26 26 -29 0 -3 7 -14 17 -25 13 -16 18 -17 29 -7 13 14 4 83
-13 95 -4 3 -40 68 -78 143 -51 100 -67 140 -59 148 17 17 53 -5 94 -56 19
-24 40 -50 45 -57 19 -23 65 -132 70 -167 4 -19 10 -39 14 -45 15 -18 22 -144
11 -166 -21 -39 -48 -38 -129 3 -110 57 -123 65 -133 82 -5 9 -14 16 -21 16
-7 0 -41 39 -77 87 -77 104 -108 189 -117 315 -9 125 -2 134 52 73 25 -28 48
-60 51 -72z m2639 73 c39 -20 75 -40 81 -45 5 -4 21 -14 34 -21 13 -7 35 -26
49 -43 14 -17 34 -38 44 -46 9 -9 17 -27 17 -42 0 -38 -26 -56 -100 -69 -58
-11 -92 -10 -245 5 -5 1 -45 14 -87 31 -90 34 -100 54 -40 80 41 17 61 16 227
-15 79 -15 95 -14 95 9 0 12 -12 24 -32 33 -52 23 -132 52 -143 52 -5 0 -13 3
-16 7 -11 16 -153 21 -199 7 -55 -15 -91 -13 -107 8 -20 25 3 59 51 73 22 7
46 14 51 16 6 2 64 2 130 0 116 -3 123 -4 190 -40z m-4052 -11 c-3 -9 -8 -14
-10 -11 -3 3 -2 9 2 15 9 16 15 13 8 -4z m-289 -33 c3 -5 -1 -9 -9 -9 -8 0
-12 4 -9 9 3 4 7 8 9 8 2 0 6 -4 9 -8z m-1914 -26 c0 -2 -7 -7 -16 -10 -8 -3
-12 -2 -9 4 6 10 25 14 25 6z m230 -51 c37 -4 176 -81 214 -119 104 -104 142
-152 129 -164 -17 -16 -49 -15 -67 3 -8 8 -20 15 -26 15 -6 0 -9 3 -7 8 5 8
-12 21 -143 113 -93 64 -147 79 -135 37 4 -13 16 -30 26 -38 11 -8 40 -32 65
-52 25 -21 55 -43 67 -49 23 -12 66 -58 67 -72 1 -23 -24 -33 -57 -22 -19 6
-39 17 -45 23 -7 7 -16 12 -21 12 -4 0 -38 21 -75 48 -70 49 -124 104 -156
156 -10 17 -22 33 -26 36 -14 10 -18 53 -7 66 11 13 75 13 197 -1z m5337 -30
c0 -8 -4 -12 -9 -9 -5 3 -6 10 -3 15 9 13 12 11 12 -6z m2003 -50 c0 -5 -5 -3
-10 5 -5 8 -10 20 -10 25 0 6 5 3 10 -5 5 -8 10 -19 10 -25z m-2250 1 c-7 -7
-13 -7 -20 0 -6 6 -3 10 10 10 13 0 16 -4 10 -10z m286 -146 c0 -12 -4 -16 -9
-11 -5 5 -6 14 -3 20 10 15 12 14 12 -9z m-323 -106 c50 -20 111 -47 134 -60
57 -33 154 -119 173 -152 8 -15 25 -41 38 -59 12 -17 22 -33 22 -36 0 -2 15
-30 33 -60 34 -55 37 -72 23 -113 -10 -31 -72 -44 -205 -44 -90 0 -117 4 -144
19 -18 10 -49 22 -68 26 -46 10 -114 41 -169 78 -71 47 -177 164 -185 203 -3
19 -10 34 -15 34 -5 0 -14 19 -21 43 -6 23 -18 54 -27 70 -13 21 -14 32 -6 45
23 36 23 36 305 -152 74 -49 145 -99 159 -111 14 -12 45 -30 70 -40 25 -10 63
-31 84 -47 22 -15 50 -28 63 -28 20 0 23 4 18 27 -2 16 -9 29 -14 31 -17 6
-125 83 -208 149 -121 96 -170 133 -180 133 -15 1 -53 38 -53 52 0 40 57 37
173 -8z m-6301 -27 c20 -3 43 -9 50 -14 7 -4 33 -15 58 -23 33 -11 46 -21 48
-37 l3 -22 -218 6 c-231 6 -333 -4 -333 -33 0 -8 3 -14 8 -15 22 -3 82 -8 212
-18 80 -6 164 -15 188 -21 24 -6 47 -8 53 -5 5 4 9 2 9 -3 0 -6 11 -13 25 -16
27 -7 33 -27 12 -44 -7 -6 -60 -18 -117 -28 -110 -17 -243 -15 -330 5 -25 5
-57 12 -71 15 -14 3 -41 19 -60 36 -19 16 -47 35 -64 42 -34 14 -54 36 -55 58
0 18 44 48 130 86 36 15 66 31 68 34 3 7 335 4 384 -3z m7278 9 c0 -3 -4 -8
-10 -11 -5 -3 -10 -1 -10 4 0 6 5 11 10 11 6 0 10 -2 10 -4z m-4905 -132 c33
-8 67 -16 75 -17 15 -2 22 -8 53 -43 22 -27 13 -58 -13 -44 -39 21 -215 42
-305 37 -85 -5 -145 -21 -145 -38 0 -14 70 -27 170 -34 163 -9 190 -16 190
-45 0 -32 -32 -40 -156 -36 -102 2 -127 6 -174 28 -173 79 -173 79 -145 121
46 71 297 110 450 71z m2389 -301 c-10 -105 -7 -226 4 -219 4 2 8 -39 8 -93 2
-104 15 -154 37 -145 20 7 30 86 32 240 1 111 5 136 21 165 12 20 28 34 40 34
16 0 22 -14 37 -85 35 -169 36 -204 8 -315 -14 -56 -33 -112 -42 -126 -9 -13
-19 -34 -23 -45 -4 -15 -17 -23 -38 -26 -26 -4 -38 1 -63 26 -54 55 -83 101
-100 162 -10 32 -22 65 -29 73 -16 20 -15 270 1 302 25 49 52 132 46 142 -3 6
-1 7 5 3 6 -4 17 2 24 13 11 18 15 19 27 6 11 -11 12 -32 5 -112z m-1462 -32
c-1 -14 -28 -51 -62 -85 -68 -69 -140 -159 -140 -175 0 -5 -13 -25 -28 -43
-16 -18 -35 -46 -44 -63 -8 -16 -21 -40 -29 -53 -10 -16 -11 -27 -3 -39 16
-26 33 -27 43 -1 5 13 30 45 56 71 31 30 45 52 42 61 -4 9 -3 15 1 14 4 -2 24
13 45 32 21 19 53 49 71 65 17 17 35 38 39 48 4 10 17 17 32 17 22 0 25 -4 25
-34 0 -19 -13 -59 -29 -90 -17 -31 -27 -56 -24 -56 3 0 -6 -15 -21 -34 -14
-19 -26 -39 -26 -45 0 -5 -12 -18 -27 -29 -16 -11 -45 -36 -65 -55 -20 -19
-61 -46 -89 -61 -29 -14 -49 -26 -43 -26 20 0 -44 -27 -77 -32 -60 -10 -64 -2
-61 114 2 95 22 178 41 178 4 0 7 10 8 22 1 12 16 42 33 65 16 24 30 48 30 53
0 6 4 10 9 10 5 0 22 18 38 39 28 40 84 83 171 133 59 33 88 32 84 -1z m-3754
4 c17 -3 33 -13 36 -22 16 -39 -88 -73 -226 -73 -36 0 -79 -3 -96 -6 -32 -6
-49 -31 -34 -46 14 -14 140 -38 196 -38 52 0 163 25 184 42 6 6 12 7 12 4 0
-4 10 2 22 14 12 11 32 20 44 20 24 0 54 -24 54 -42 0 -17 -70 -78 -89 -78 -9
0 -21 -4 -26 -9 -6 -5 -47 -19 -93 -31 -68 -18 -97 -21 -155 -15 -40 3 -84 7
-99 7 -16 1 -25 5 -21 11 4 6 0 8 -10 4 -10 -3 -17 -2 -17 2 0 5 -14 14 -31
20 -57 20 -116 76 -121 115 -2 19 -1 33 3 30 4 -2 26 7 50 21 24 14 64 34 89
46 25 12 52 25 60 29 17 8 225 5 268 -5z m1094 -95 c53 -11 110 -28 128 -36
17 -9 38 -13 46 -10 8 3 13 2 10 -3 -3 -5 5 -12 19 -15 25 -6 35 -39 15 -51
-21 -13 -215 -35 -399 -45 -197 -10 -233 -18 -209 -47 7 -9 23 -13 39 -11 16
3 26 1 23 -4 -3 -4 3 -8 13 -8 10 -1 77 -5 148 -9 80 -6 176 -5 250 1 193 17
189 17 193 -12 2 -14 1 -22 -4 -18 -4 4 -12 4 -18 -1 -21 -17 -87 -51 -99 -51
-7 0 -28 -8 -47 -19 -19 -10 -55 -22 -80 -26 -25 -4 -58 -14 -74 -22 -39 -20
-243 -26 -321 -9 -118 26 -161 39 -206 62 -26 13 -54 24 -63 24 -9 0 -16 3
-16 8 0 4 -23 18 -51 32 -83 41 -103 88 -46 111 17 7 57 31 87 52 95 67 179
98 330 122 104 17 205 13 332 -15z m2379 -7 c13 -16 12 -17 -3 -4 -17 13 -22
21 -14 21 2 0 10 -8 17 -17z m4028 -99 c86 -41 125 -71 161 -122 19 -26 44
-57 56 -70 59 -61 31 -116 -54 -106 -26 3 -63 11 -82 17 -19 6 -42 11 -51 12
-9 0 -39 15 -66 33 -27 18 -55 32 -61 32 -7 0 -12 3 -12 8 0 4 -23 31 -51 60
-55 59 -76 99 -60 115 14 14 46 -3 98 -51 77 -72 99 -88 154 -115 59 -28 84
-33 94 -18 5 10 -21 41 -35 41 -4 0 -24 15 -42 33 -19 17 -60 56 -92 85 -80
75 -61 95 43 46z m-8 -101 c13 -16 12 -17 -3 -4 -10 7 -18 15 -18 17 0 8 8 3
21 -13z m-5327 -19 c35 -13 15 -39 -59 -77 -41 -22 -75 -42 -75 -46 0 -4 -10
-7 -22 -8 -12 -1 -34 -11 -49 -22 -15 -11 -48 -25 -72 -32 -44 -11 -64 -30
-51 -50 9 -15 100 -10 146 7 24 9 72 30 108 46 36 17 81 36 101 43 20 7 45 18
55 24 11 5 46 19 78 31 59 21 60 21 79 2 19 -19 18 -20 -12 -51 -17 -17 -34
-31 -39 -31 -4 0 -17 -12 -29 -27 -11 -16 -33 -35 -49 -43 -16 -8 -39 -25 -51
-37 -12 -13 -29 -23 -38 -23 -10 0 -30 -9 -46 -21 -36 -25 -170 -48 -294 -49
-79 -1 -252 33 -273 53 -14 15 -14 20 -1 44 8 15 21 33 29 39 20 16 57 48 101
89 40 36 141 84 234 110 33 9 74 20 90 25 37 10 118 12 139 4z m1157 -57 c-10
-9 -11 -8 -5 6 3 10 9 15 12 12 3 -3 0 -11 -7 -18z m-371 -22 c0 -34 -119
-199 -177 -244 -12 -11 -23 -22 -23 -27 0 -12 -188 -189 -249 -234 -16 -11
-53 -72 -48 -77 10 -9 130 56 157 85 14 15 29 28 33 29 14 4 67 46 119 96 28
26 55 47 60 47 6 0 8 7 4 15 -3 8 -2 14 2 14 26 -4 77 35 67 51 -3 6 0 7 8 4
9 -3 19 6 26 25 7 16 19 32 27 35 8 3 14 12 14 20 0 11 46 36 66 36 10 0 8
-42 -2 -79 -7 -25 -10 -49 -7 -54 3 -6 1 -7 -5 -3 -11 7 -52 -52 -52 -76 0 -8
-8 -23 -17 -34 -27 -29 -73 -92 -73 -99 0 -3 6 -3 13 1 7 4 9 3 4 -2 -5 -5
-12 -9 -16 -9 -7 0 -8 -1 -113 -90 -42 -36 -84 -65 -92 -65 -9 0 -16 -4 -16
-10 0 -16 -290 -100 -345 -100 -22 0 -25 4 -25 35 0 124 52 288 122 386 49 69
148 179 162 179 6 0 25 12 41 26 35 30 184 104 211 104 11 1 33 7 49 15 41 18
75 19 75 0z m4201 -32 c13 -16 12 -17 -3 -4 -10 7 -18 15 -18 17 0 8 8 3 21
-13z m589 -103 c-8 -5 -19 -10 -25 -10 -5 0 -3 5 5 10 8 5 20 10 25 10 6 0 3
-5 -5 -10z m-7238 -124 c101 -32 158 -64 158 -89 0 -22 -16 -21 -240 2 -90 9
-183 4 -174 -10 3 -5 -1 -6 -8 -4 -24 9 -133 -20 -133 -36 0 -15 76 -23 282
-30 57 -2 103 -7 103 -11 0 -5 5 -8 11 -8 18 0 39 -28 33 -44 -13 -34 -196
-56 -319 -38 -87 12 -196 57 -241 98 -19 17 -37 28 -41 25 -3 -3 3 8 14 24 41
59 99 94 218 131 101 31 220 27 337 -10z m3593 11 c25 -19 14 -32 -43 -53 -26
-10 -54 -23 -62 -30 -8 -6 -26 -15 -40 -19 -71 -22 -250 -134 -250 -157 0 -6
-3 -9 -6 -5 -10 9 -54 -35 -54 -55 0 -10 4 -18 10 -18 19 0 90 32 90 41 0 5 6
6 13 4 7 -3 36 10 66 29 30 19 68 38 85 42 17 3 49 16 71 27 22 11 57 21 77
22 32 2 38 -1 38 -17 0 -11 -7 -26 -15 -35 -8 -8 -12 -19 -9 -25 4 -6 3 -8 -3
-5 -13 8 -55 -22 -47 -34 3 -5 2 -8 -3 -7 -10 3 -81 -40 -105 -64 -10 -10 -23
-18 -29 -18 -5 0 -31 -10 -57 -22 -39 -18 -70 -23 -184 -26 l-137 -4 -6 25
c-4 16 -1 37 9 54 8 15 25 47 36 71 12 23 25 42 29 42 5 0 14 13 20 28 7 16
35 46 64 68 29 21 54 43 55 47 7 14 116 64 157 71 22 4 67 13 100 21 78 18
107 18 130 2z m-1310 -67 c-3 -5 -12 -10 -18 -10 -7 0 -6 4 3 10 19 12 23 12
15 0z m5310 -94 c116 -34 276 -143 313 -213 15 -28 2 -53 -28 -53 -10 0 -46
-9 -81 -21 -92 -30 -309 -32 -389 -2 -30 11 -73 26 -95 33 -47 15 -145 76
-145 89 0 5 -9 13 -21 16 -25 8 -79 81 -79 107 0 24 30 23 77 -2 21 -11 43
-20 49 -20 6 0 37 -12 68 -26 31 -14 62 -27 69 -28 7 -2 26 -8 42 -15 87 -34
116 -43 129 -38 8 3 20 -1 26 -9 7 -8 18 -14 25 -14 7 0 18 -7 25 -15 13 -16
76 -20 98 -6 29 18 8 46 -42 58 -27 7 -52 16 -55 22 -11 17 -141 72 -152 65
-8 -4 -9 -3 -5 4 4 8 -4 16 -21 22 -95 35 -124 58 -90 74 27 13 205 -5 282
-28z m-6880 14 c13 -21 -7 -46 -64 -82 -33 -21 -62 -38 -66 -38 -3 0 -32 -12
-63 -27 -31 -14 -62 -26 -69 -26 -7 0 -21 -9 -30 -19 -15 -17 -15 -20 -3 -28
23 -14 103 -11 123 5 11 7 36 17 58 20 21 4 39 11 39 16 0 6 4 8 9 5 11 -7
122 53 137 73 47 63 82 86 115 76 39 -13 20 -63 -50 -131 -23 -23 -41 -47 -37
-52 3 -5 0 -9 -7 -9 -7 0 -30 -11 -52 -25 -47 -30 -189 -68 -254 -68 -46 0
-174 29 -203 46 -39 22 34 124 150 208 29 21 55 36 58 33 3 -2 26 3 52 13 52
20 147 26 157 10z m45 -86 c0 -8 -19 -13 -24 -6 -3 5 1 9 9 9 8 0 15 -2 15 -3z
m2815 -43 c3 -5 2 -12 -3 -15 -5 -3 -9 1 -9 9 0 17 3 19 12 6z m4216 -938 c13
-16 12 -17 -3 -4 -10 7 -18 15 -18 17 0 8 8 3 21 -13z m-6596 -1411 c-3 -3
-11 0 -18 7 -9 10 -8 11 6 5 10 -3 15 -9 12 -12z"/>
<path d="M3422 9069 c1 -12 9 -24 16 -27 9 -3 13 3 10 19 -1 12 -9 24 -16 27
-9 3 -13 -3 -10 -19z"/>
<path d="M2560 9040 c0 -16 5 -30 10 -30 6 0 10 14 10 30 0 17 -4 30 -10 30
-5 0 -10 -13 -10 -30z"/>
<path d="M4287 7613 c10 -30 25 -44 40 -39 8 3 12 2 8 -3 -3 -5 11 -19 30 -31
20 -12 41 -27 48 -34 14 -14 49 -30 60 -27 5 1 6 -3 3 -7 -3 -5 3 -17 14 -27
11 -10 20 -22 20 -27 0 -5 5 -14 10 -21 38 -46 70 -92 76 -110 4 -12 10 -24
14 -27 9 -6 57 -149 71 -210 6 -25 19 -81 30 -125 10 -44 21 -105 25 -135 7
-58 28 -105 44 -95 5 3 14 25 20 48 6 23 20 61 32 84 18 39 19 49 8 115 -6 40
-14 75 -18 78 -4 3 -8 14 -10 25 -10 78 -25 145 -33 151 -5 3 -9 12 -9 21 0
15 -29 83 -39 93 -14 12 -51 70 -51 79 0 5 -4 11 -8 13 -4 2 -21 20 -37 41
-27 36 -133 117 -153 117 -4 0 -17 8 -28 18 -32 29 -90 52 -133 52 -34 0 -39
-3 -34 -17z"/>
<path d="M7838 7557 c-12 -29 -10 -63 3 -50 6 6 9 23 7 39 -2 24 -4 26 -10 11z"/>
<path d="M6300 7235 c-32 -17 -125 -58 -170 -75 -19 -8 -47 -22 -62 -32 -15
-10 -53 -23 -85 -29 -32 -6 -69 -17 -82 -24 l-25 -13 31 -6 c95 -21 265 33
393 124 19 14 44 30 54 36 11 6 22 16 24 22 5 16 -46 14 -78 -3z m-105 -105
c-3 -5 -12 -10 -18 -10 -7 0 -6 4 3 10 19 12 23 12 15 0z"/>
<path d="M5350 6986 c-152 -60 -141 -54 -213 -124 -65 -62 -83 -85 -91 -110
-4 -11 -15 -30 -26 -42 -11 -13 -20 -32 -20 -42 0 -11 -9 -32 -19 -47 -27 -37
-43 -107 -36 -151 5 -31 10 -37 25 -33 11 3 22 15 26 27 7 25 96 166 105 166
3 0 35 27 70 60 100 95 265 189 368 211 46 10 51 13 51 38 0 23 -6 30 -37 39
-67 20 -165 24 -203 8z"/>
<path d="M4863 6663 c-7 -2 -13 -10 -13 -17 0 -7 -11 -27 -25 -45 -13 -19 -27
-55 -30 -80 -3 -25 -12 -57 -20 -71 -7 -14 -20 -61 -29 -105 -8 -44 -21 -105
-29 -135 -8 -30 -18 -86 -21 -125 -8 -78 -2 -109 76 -415 34 -136 37 -146 53
-176 8 -16 15 -34 15 -40 0 -7 13 -36 28 -65 15 -30 45 -100 67 -156 21 -57
42 -103 46 -103 4 0 10 -13 14 -29 9 -42 41 -101 50 -93 5 4 5 2 2 -4 -8 -13
49 -175 87 -251 14 -28 29 -65 32 -82 4 -17 9 -31 13 -31 4 0 8 -12 9 -27 3
-38 33 -156 42 -168 5 -5 11 -28 15 -50 4 -22 18 -65 31 -95 12 -31 26 -85 29
-120 4 -36 11 -78 16 -95 9 -31 23 -126 36 -242 5 -37 7 -226 5 -420 -2 -326
-1 -356 17 -410 11 -32 24 -81 30 -109 6 -29 20 -68 32 -88 11 -20 18 -36 15
-36 -4 0 -2 -9 4 -20 6 -11 15 -18 20 -15 6 3 7 0 4 -8 -3 -8 0 -18 7 -23 8
-5 10 -3 4 6 -5 8 -4 11 3 6 6 -4 9 -12 6 -19 -2 -7 5 -22 16 -34 11 -12 20
-26 20 -30 0 -5 10 -17 23 -28 20 -19 40 -20 275 -23 140 -2 251 1 249 5 -3 5
9 7 28 5 18 -2 35 1 39 6 7 12 -61 28 -164 37 -61 6 -82 12 -112 36 -20 16
-41 29 -46 29 -11 0 -102 83 -102 94 0 5 -8 16 -18 25 -47 40 -101 154 -134
276 -6 22 -19 68 -30 102 -22 73 -38 238 -38 413 0 145 -19 434 -30 438 -3 1
-5 15 -3 30 5 31 -29 239 -52 322 -8 30 -15 60 -15 66 0 7 -10 34 -22 61 -12
26 -20 52 -19 58 3 10 -14 73 -29 110 -5 11 -14 38 -21 60 -6 22 -22 60 -35
85 -13 25 -30 63 -37 85 -39 111 -101 262 -117 286 -11 14 -35 68 -53 120 -44
121 -70 179 -79 179 -4 0 -5 7 -2 15 3 8 -3 30 -14 49 -12 20 -35 104 -52 188
-17 84 -42 188 -55 230 -34 108 -46 255 -36 419 7 106 13 145 30 177 30 59 28
79 -6 65z m52 -933 c3 -5 1 -10 -4 -10 -6 0 -11 5 -11 10 0 6 2 10 4 10 3 0 8
-4 11 -10z"/>
<path d="M4229 6014 c-10 -13 -10 -17 2 -24 43 -25 147 -100 182 -133 29 -27
46 -36 61 -31 13 3 16 2 9 -3 -9 -6 -1 -21 27 -53 22 -25 40 -48 40 -52 0 -4
6 -13 13 -20 6 -7 30 -37 52 -65 40 -55 49 -61 60 -42 11 17 -4 81 -17 73 -6
-4 -8 -3 -5 3 8 13 -38 252 -51 265 -6 6 -60 21 -120 33 -129 27 -182 43 -182
56 0 15 -57 10 -71 -7z"/>
<path d="M5430 5511 c-19 -4 -66 -17 -105 -29 -38 -12 -91 -24 -117 -27 -46
-6 -48 -8 -48 -38 0 -18 6 -41 14 -52 7 -11 16 -36 20 -56 4 -21 13 -42 21
-49 18 -15 21 -12 103 72 31 32 83 73 115 91 32 18 55 37 53 44 -3 7 1 10 10
6 9 -3 14 2 14 15 0 18 -20 34 -38 31 -4 -1 -23 -5 -42 -8z"/>
<path d="M9410 5080 c0 -5 3 -10 8 -11 4 0 17 -2 30 -5 15 -3 22 1 22 11 0 10
-10 15 -30 15 -16 0 -30 -4 -30 -10z"/>
<path d="M5054 4584 c-7 -27 -1 -90 16 -169 12 -58 37 -329 45 -505 6 -115 2
-179 -25 -435 -18 -171 -22 -200 -30 -215 -15 -29 -11 -311 6 -435 9 -66 17
-142 18 -168 1 -59 12 -67 97 -67 70 0 102 17 81 43 -47 57 -62 437 -24 592
43 175 52 463 21 630 -6 28 -12 73 -14 102 -2 28 -9 71 -16 95 -7 24 -12 49
-10 55 4 23 -49 265 -72 331 -6 17 -15 32 -19 32 -4 0 -8 7 -8 16 0 8 -4 12
-10 9 -5 -3 -7 0 -5 8 5 12 -31 107 -40 107 -3 0 -8 -11 -11 -26z"/>
<path d="M4898 2729 c-19 -30 -42 -60 -51 -68 -9 -7 -15 -17 -12 -21 3 -5 -3
-6 -12 -4 -10 2 -24 0 -32 -5 -12 -8 -12 -12 -2 -25 11 -13 34 -16 111 -16
125 0 129 4 91 94 -16 37 -35 75 -44 83 -13 14 -19 10 -49 -38z"/>
<path d="M2560 2743 c-82 -8 -286 -35 -300 -40 -8 -3 -30 -7 -49 -9 -19 -2
-50 -11 -68 -19 -19 -9 -51 -19 -71 -21 -101 -13 -162 -27 -172 -39 -14 -16
12 -22 138 -29 l83 -4 44 -48 c25 -26 45 -50 45 -52 0 -2 26 -30 58 -61 31
-32 69 -71 84 -87 22 -25 89 -88 148 -139 37 -33 140 -87 199 -105 138 -43
253 -17 424 97 69 47 78 61 52 83 -19 16 -19 54 0 73 7 8 17 26 21 41 3 14 10
29 15 32 5 3 16 21 24 40 8 19 21 42 30 50 8 9 15 26 15 40 0 17 8 27 27 35
16 6 177 9 427 9 397 -2 435 0 485 26 14 8 38 14 53 14 15 0 30 5 33 10 4 6
11 8 16 5 5 -4 24 5 42 19 19 15 44 26 56 26 34 0 93 28 89 42 -7 20 -82 21
-151 2 -56 -16 -118 -18 -617 -19 -335 0 -561 -4 -570 -10 -8 -5 -29 -8 -46
-6 -18 1 -70 -9 -116 -23 -46 -14 -96 -26 -111 -26 -15 0 -54 -11 -86 -25 -61
-25 -158 -45 -227 -45 -42 0 -90 27 -66 37 7 2 18 10 25 16 6 7 27 13 45 14
18 0 40 7 48 15 9 7 41 22 72 33 94 34 74 56 -48 53 -36 -1 -81 -3 -100 -5z
m461 -163 c10 -6 19 -14 19 -18 0 -4 -30 -23 -66 -42 -61 -33 -67 -34 -92 -19
-33 18 -39 44 -16 70 13 15 31 19 76 19 33 0 68 -5 79 -10z"/>
<path d="M4667 2690 c-18 -25 -44 -37 -114 -50 -94 -19 -79 -50 23 -50 88 0
133 28 149 92 6 22 3 26 -20 26 -14 0 -31 -8 -38 -18z"/>
<path d="M5337 2642 c-28 -31 -21 -42 27 -42 54 0 64 18 24 43 -35 21 -31 21
-51 -1z m28 -11 c3 -5 2 -12 -3 -15 -5 -3 -9 1 -9 9 0 17 3 19 12 6z"/>
</g>
</svg>
